<svg width="99" height="98" viewBox="0 0 99 98" fill="none" xmlns="http://www.w3.org/2000/svg">
<path d="M48.3296 0.158203C51.9551 0.0390914 53.7384 1.16951 54.6206 2.29492C55.0643 2.86102 55.2873 3.43471 55.3989 3.86621C55.4546 4.08147 55.4826 4.26095 55.4966 4.38574C55.5035 4.44789 55.5066 4.49684 55.5083 4.5293C55.5092 4.54552 55.51 4.55859 55.5103 4.56641V4.57617L55.5112 4.74805L55.6821 4.72363C55.6828 4.72354 55.6838 4.72381 55.6851 4.72363C55.6879 4.72325 55.6928 4.72244 55.6987 4.72168C55.7107 4.72015 55.7289 4.71852 55.7524 4.71582C55.7999 4.71039 55.8702 4.70293 55.9604 4.69531C56.1414 4.68005 56.4023 4.66372 56.7202 4.66016C57.3567 4.65302 58.2188 4.6966 59.1245 4.89844C60.936 5.30212 62.8983 6.33099 63.6138 8.83398L63.6187 8.8457C63.6357 8.89108 63.6668 8.92204 63.686 8.93848C63.7081 8.95737 63.7331 8.97373 63.7563 8.9873C63.803 9.01457 63.8595 9.03942 63.9116 9.06152C63.9646 9.08397 64.0188 9.10536 64.062 9.12207C64.1094 9.14038 64.1359 9.15127 64.146 9.15625C64.9907 9.57485 65.8181 9.99667 66.4243 10.7031C67.058 11.4417 67.4985 12.3364 67.8579 13.2529C68.0668 13.7857 68.1639 14.3628 68.2466 14.9619C68.3286 15.5559 68.3967 16.1762 68.5513 16.7676C68.9674 18.3595 69.9996 19.0488 71.3462 19.749C73.0983 20.6601 73.8682 22.4074 74.0161 24.3408C74.3158 28.2563 75.728 32.9334 78.8081 35.6533C79.0366 35.996 79.3265 36.4341 79.4731 36.8691C79.6209 37.3076 79.6109 37.6973 79.3003 37.9873C74.1403 42.8047 68.0629 46.9196 61.4224 49.3623C58.5094 50.4338 55.3382 51.2607 52.23 51.2607H52.2261C38.5962 51.6179 29.9596 48.0311 23.2183 42.0225C19.8362 39.008 17.8797 36.7223 16.8882 35.042C15.8895 33.3495 15.8993 32.3273 16.3169 31.7812C16.5271 31.5064 16.9384 31.2981 17.4937 31.085C18.0311 30.8787 18.7036 30.6682 19.3491 30.3896C20.6564 29.8254 21.9645 28.9397 22.3091 27.0439C22.4766 26.1219 22.5273 25.2406 22.5698 24.4209C22.6126 23.5977 22.6468 22.8418 22.7778 22.1523C22.9084 21.4657 23.1343 20.854 23.5532 20.3213C23.972 19.7889 24.5924 19.3243 25.5308 18.9453C26.9501 18.3721 28.4189 17.5676 29.2905 16.2148C29.5699 15.7811 29.7513 15.3151 29.9165 14.8564C30.0833 14.3933 30.2329 13.9415 30.4517 13.5117C31.1788 12.0832 32.2614 10.9939 33.6753 10.249C35.8002 9.12966 38.3858 8.67393 40.772 8.94238L40.9692 8.96484L40.936 8.76855V8.76758C40.9359 8.76677 40.9353 8.76544 40.9351 8.76367C40.9345 8.76 40.9343 8.7537 40.9331 8.74609C40.9308 8.73087 40.9273 8.70769 40.9233 8.67773C40.9153 8.61731 40.9046 8.52807 40.894 8.41406C40.8729 8.18552 40.8519 7.8574 40.855 7.46289C40.8612 6.67295 40.962 5.6204 41.3364 4.56152C41.7106 3.50361 42.3576 2.44193 43.4556 1.62598C44.5532 0.810314 46.1133 0.231053 48.3296 0.158203Z" fill="#DB4193" stroke="black" stroke-width="0.3"/>
<path d="M74.9498 62.2443C74.0614 59.5792 71.9813 57.3554 69.3307 56.3899C66.2417 55.2647 63.1789 56.6694 60.2941 57.7263C57.856 58.6195 54.9333 58.9201 53.4323 56.2735C52.5226 54.6695 53.1197 51.8659 53.2734 50.1065C59.9076 46.7265 61.4766 37.3962 61.4766 37.3962C61.4766 37.3962 64.6793 34.9667 64.7897 32.4266C64.9001 29.8867 62.1392 30.1075 62.1392 30.1075C62.1392 26.2422 62.1392 12.5482 47.12 12.9899C32.1007 13.4317 33.2954 30.8004 33.2954 30.8004C31.9702 30.4691 31.418 31.6237 31.418 31.6237C30.7555 34.6558 34.0886 37.5067 34.0886 37.5067C34.0886 37.5067 35.1929 45.8998 40.5125 49.5588C41.1219 53.5147 42.1308 57.8517 39.1839 60.3663C36.204 62.9088 32.1327 61.2994 28.9819 63.3102C26.3043 65.0191 24.4501 68.8497 22.8242 71.5208C18.1858 79.1409 16.198 89.0802 16.198 89.0802C18.1858 93.0559 25.3642 94.6019 25.3642 94.6019L24.1493 91.9515C19.6215 83.5584 28.125 72.8461 28.125 72.8461C33.9781 70.6374 43.4756 68.9809 50.1017 72.8461C56.7279 76.7113 59.1574 74.1714 59.1574 74.1714C60.2618 78.147 65.4612 96.099 65.4612 96.099C72.0906 94.7738 82.686 86.4911 82.686 86.4911C82.686 86.4911 75.9439 65.2265 74.9498 62.2443Z" fill="#FFBC82"/>
<path d="M67.2002 68.7471C71.0846 67.2119 73.492 67.223 74.9189 67.6025C75.6323 67.7923 76.1047 68.0749 76.3975 68.3076C76.6895 68.5398 76.8044 68.722 76.8135 68.7334L84.1777 77.9531C85.1215 79.1348 84.6254 80.8957 83.2031 81.4082C82.0644 81.8184 80.8903 82.5097 79.7109 84.4121C79.3573 84.9826 78.6638 85.6903 77.7363 86.2822C76.8104 86.8731 75.6609 87.3432 74.4014 87.4512C73.7527 87.5068 73.2015 87.518 72.6611 87.5566C72.132 87.5945 71.6388 87.6579 71.166 87.8184C70.2103 88.1429 69.3689 88.8529 68.4385 90.4531C66.9689 92.9808 64.1684 92.8378 63.2148 92.7051C63.0865 92.6872 62.982 92.5915 62.9531 92.4648L62.0957 88.6758L62.082 88.6338C62.0031 88.4517 61.7222 88.4749 61.6797 88.6719L61.6748 88.7168C61.6105 90.9915 61.8703 95.1561 61.96 96.499C61.9708 96.6632 61.8521 96.8071 61.6895 96.8281C42.2636 99.3269 27.387 95.0623 25.5918 94.5156C25.5126 94.4915 25.4462 94.437 25.4072 94.3643L24.2588 92.2129C24.1761 92.058 24.0303 91.9427 23.8564 91.9033C23.5757 91.8398 22.935 91.6355 21.8721 90.9775C21.5029 90.749 21.2268 90.4797 20.9756 90.1914C20.8494 90.0465 20.7299 89.8972 20.6074 89.7451C20.4857 89.594 20.3606 89.4395 20.2256 89.2881C19.6775 88.6733 18.9686 88.1113 17.5527 87.8281C16.8303 87.6836 16.2412 87.3912 15.7656 87.041C14.6066 86.1874 14.4103 84.5313 15.3125 83.4033C17.8938 80.176 21.4864 74.1155 22.6055 72.1973C22.7094 72.0191 22.9555 71.9892 23.1016 72.1406C23.8655 72.9354 25.0064 73.1712 25.9902 73.2031C26.9791 73.2351 27.8438 73.0626 28.0898 73.0078C28.1464 72.9952 28.2009 72.9754 28.252 72.9473C28.6308 72.7389 31.0125 71.4721 34.3564 70.666C37.7018 69.8596 41.9978 69.5167 46.2119 71.1416C53.6164 73.9968 57.6529 74.3029 58.8125 74.3242C59.0671 74.3289 59.2951 74.1752 59.3906 73.9414C59.7104 73.1586 61.3129 71.0738 67.2002 68.7471Z" fill="#EC4F7C" stroke="black" stroke-width="0.3"/>
<path d="M51.1838 40.3957C51.1838 40.3957 48.463 38.4078 47.9844 38.5183C47.5058 38.6287 47.0273 39.6962 46.4383 39.0336C45.8493 38.371 45.8191 38.3285 44.929 38.8496C43.4197 39.733 43.0348 40.6934 42.814 40.6566C42.814 40.6566 44.4136 42.8621 46.7696 42.8621C49.3465 42.862 51.1838 40.3957 51.1838 40.3957Z" fill="#FF422D"/>
<path opacity="0.5" d="M57.372 36.1076C58.6427 36.1076 59.6727 35.6132 59.6727 35.0033C59.6727 34.3934 58.6427 33.8989 57.372 33.8989C56.1014 33.8989 55.0713 34.3934 55.0713 35.0033C55.0713 35.6132 56.1014 36.1076 57.372 36.1076Z" fill="#FF422D"/>
<path opacity="0.5" d="M37.8432 35.8498C39.1138 35.8498 40.1439 35.3554 40.1439 34.7455C40.1439 34.1355 39.1138 33.6411 37.8432 33.6411C36.5725 33.6411 35.5425 34.1355 35.5425 34.7455C35.5425 35.3554 36.5725 35.8498 37.8432 35.8498Z" fill="#FF422D"/>
<path d="M45.0964 27.116C45.7151 28.4171 45.9777 29.9828 45.8212 31.4147C45.8115 31.51 45.7981 31.6387 45.7789 31.731C45.7478 31.9176 45.701 32.177 45.6473 32.357C45.5108 32.8807 45.3073 33.4681 45.1419 33.9813C45.0493 34.2809 44.8579 34.6368 44.8566 34.9297C44.8559 34.972 44.8634 35.0106 44.875 35.0492C44.9156 35.1398 44.9824 35.2006 45.0791 35.2549C45.3936 35.4204 45.8335 35.4304 46.1818 35.333C46.2589 35.3087 46.3052 35.42 46.2346 35.4582C46.0412 35.5652 45.8282 35.6189 45.6107 35.641C45.2043 35.6842 44.6874 35.587 44.5017 35.1682C44.3424 34.7754 44.5209 34.3552 44.6226 33.9818C44.7767 33.3667 44.9817 32.6922 45.1286 32.075C45.3301 31.1584 45.3469 30.2015 45.2688 29.2686C45.2401 28.9829 45.2067 28.6548 45.1575 28.3723C45.1143 28.0752 45.0552 27.7718 44.9909 27.4786C44.9696 27.3785 44.9451 27.2776 44.9214 27.1802C44.8957 27.078 45.0449 27.0141 45.0964 27.116Z" fill="#D05227"/>
<path d="M51.3986 29.8938C51.6328 28.8206 52.4229 27.8605 53.4766 27.5101C55.1851 26.9778 56.974 27.6562 57.7323 29.3129C57.8021 29.4609 57.8605 29.6161 57.9068 29.7738C57.9771 29.9498 57.9138 30.1493 57.7173 30.2005C57.5634 30.2392 57.4103 30.1448 57.3687 29.9955C57.3611 29.9713 57.342 29.9212 57.333 29.8972C57.2332 29.6442 57.1005 29.4011 56.9444 29.1787C56.5879 28.671 56.0849 28.2842 55.4946 28.0973C54.761 27.873 53.9156 27.8865 53.2178 28.2258C52.4919 28.5745 51.9458 29.235 51.6024 29.953C51.5554 30.0712 51.3748 30.0207 51.3986 29.8938Z" fill="#D05227"/>
<path d="M59.4298 29.3443C59.2509 29.6444 58.9786 29.8569 58.6714 30.0123C58.4399 30.1264 58.1853 30.2004 57.9263 30.2092C57.8404 30.2124 57.7545 30.2062 57.6696 30.1954C57.5112 30.1751 57.3991 30.0303 57.4193 29.8719C57.4527 29.6296 57.6882 29.6071 57.8834 29.5902C58.0877 29.5669 58.2874 29.548 58.4915 29.508C58.7688 29.4539 59.0473 29.3544 59.3023 29.2266C59.3804 29.1755 59.4763 29.263 59.4298 29.3443Z" fill="#D05227"/>
<path d="M58.8058 28.0527C58.5739 28.7032 57.9186 29.1745 57.2358 29.2226C56.9152 29.2416 56.809 28.8019 57.0975 28.6706C57.2353 28.6077 57.3815 28.575 57.522 28.5229C57.9221 28.3954 58.3043 28.2054 58.6453 27.9539C58.7184 27.8864 58.8358 27.9572 58.8058 28.0527Z" fill="#D05227"/>
<path d="M57.8464 27.0461C57.6828 27.7006 57.0588 28.2571 56.3876 28.3348C56.0755 28.3655 55.9453 27.9464 56.2142 27.7934C56.4373 27.6741 56.6795 27.6061 56.9079 27.4988C57.2045 27.3696 57.4804 27.1956 57.7357 26.988C57.7799 26.9417 57.8607 26.9833 57.8464 27.0461Z" fill="#D05227"/>
<path d="M51.9731 23.9212C51.4211 24.0511 51.1322 24.3371 51.1637 25.0523C51.1761 25.3341 51.5045 25.5266 51.8604 25.4761C52.8569 25.3347 54.3404 24.7257 56.0397 25.0664C58.029 25.4653 58.004 25.8837 58.4122 26.0497C58.6638 26.152 59.0812 25.1532 56.7699 24.3479C54.824 23.6699 53.3409 23.5991 51.9731 23.9212Z" fill="#D05227"/>
<path d="M89.1223 66.9416C89.2948 64.6011 89.178 56.1356 79.0339 52.6741C78.6309 52.5366 78.2137 52.8404 78.2203 53.2661C78.2675 56.3302 79.1217 66.6748 88.4616 67.5103C88.8013 67.5407 89.0973 67.2818 89.1223 66.9416Z" fill="#79D397" stroke="black" stroke-width="0.3"/>
<path d="M90.8198 66.1545C90.5993 66.1856 90.4085 65.9988 90.4333 65.7775C90.601 64.285 91.3831 59.2078 94.4764 56.1283C96.4682 54.1454 97.5103 53.3234 98.0464 52.9859C98.2813 52.838 98.5853 53.0134 98.572 53.2906C98.4576 55.6598 97.578 65.2008 90.8198 66.1545Z" fill="#79D397" stroke="black" stroke-width="0.3"/>
<path d="M90.7134 45.4667C90.0367 43.7777 86.9543 36.9217 81.4927 36.8926C81.2891 36.8915 81.1458 37.0939 81.2127 37.2862C81.8222 39.0369 84.6683 46.1775 90.4569 45.8718C90.6581 45.8612 90.7883 45.6537 90.7134 45.4667Z" fill="#79D397" stroke="black" stroke-width="0.3"/>
<path d="M92.2455 41.0357C91.8333 39.5338 91.1707 35.8085 93.7723 33.2581C93.988 33.0467 94.3531 33.1446 94.4358 33.4351C94.8248 34.8 95.4518 38.2722 92.9319 41.1926C92.7241 41.4333 92.3296 41.3424 92.2455 41.0357Z" fill="#79D397" stroke="black" stroke-width="0.3"/>
<path d="M88.0152 53.3953C87.9488 52.2127 87.4529 48.6603 83.939 47.1507C83.7592 47.0734 83.5613 47.2169 83.5768 47.412C83.6744 48.6455 84.2513 52.3016 87.6594 53.6538C87.8361 53.7239 88.0259 53.585 88.0152 53.3953Z" fill="#79D397" stroke="black" stroke-width="0.3"/>
<path d="M93.4134 49.8757C93.2661 49.1035 92.7755 45.4904 96.0004 43.5309C96.0723 43.4871 96.1663 43.5312 96.1797 43.6143C96.3207 44.4884 96.7711 48.4722 93.5802 49.9624C93.5101 49.9952 93.4279 49.9516 93.4134 49.8757Z" fill="#79D397" stroke="black" stroke-width="0.3"/>
<path d="M89.7427 34.5855C90.0586 32.6616 90.6602 25.6503 83.9728 20.291C83.7463 20.1095 83.4062 20.2175 83.3281 20.4971C82.6958 22.7625 80.9848 31.185 89.1744 34.8899C89.4177 34.9999 89.6994 34.8489 89.7427 34.5855Z" fill="#79D397" stroke="black" stroke-width="0.3"/>
<path d="M87.6811 70.3979C87.9883 69.6949 88.2204 68.9492 88.4467 68.216C88.7883 67.0788 89.105 65.6912 89.3391 64.5229C90.4886 58.479 90.6247 52.2417 90.3031 46.1078C90.0778 41.7933 89.4732 37.5216 89.0392 33.2233C89.0366 33.1981 89.055 33.1756 89.0803 33.1731C89.1032 33.1708 89.124 33.186 89.1294 33.2077C89.2663 33.7538 89.4075 34.3806 89.5246 34.9364C90.3549 38.9903 90.784 43.1209 91.0005 47.2505C91.1295 49.4217 91.1574 52.1645 91.0987 54.3496C91.0845 55.0166 91.0182 56.0401 90.9888 56.716C90.9555 57.386 90.8551 58.4014 90.8033 59.0787C90.7528 59.6251 90.6612 60.2973 90.601 60.8455C90.5338 61.4636 90.3709 62.4298 90.2828 63.0466C90.1935 63.5252 90.0725 64.1724 89.9829 64.6509C89.7764 65.6108 89.4882 66.8853 89.2047 67.8247C88.9287 68.7833 88.614 69.7363 88.2017 70.6474C88.0316 70.978 87.5274 70.7585 87.6811 70.3979Z" fill="#79D397" stroke="black" stroke-width="0.3"/>
<path d="M62.8754 92.798C62.8754 92.798 60.7285 74.7969 57.9551 71.2998C57.9551 71.2998 61.8446 88.2464 62.8754 92.798Z" fill="#D05227"/>
<path d="M25.8425 74.7603C25.8425 74.7603 23.2657 89.5586 25.3639 94.6018C25.3639 94.6018 21.3514 86.9818 25.8425 74.7603Z" fill="#D05227"/>
<path d="M1.46924 63.7109C2.45733 64.4466 4.75843 65.8046 9.96143 67.7158C13.5716 69.0419 15.3359 70.7848 16.1899 72.2852C17.0051 73.7172 16.9994 74.945 16.9585 75.4131C16.0887 74.974 12.3928 73.1491 9.04834 72.1143C8.28639 71.8785 7.49205 71.35 6.70752 70.6484C5.92453 69.9483 5.15999 69.0829 4.45752 68.1855C3.13981 66.5022 2.04996 64.7139 1.46924 63.7109Z" fill="#79D397" stroke="black" stroke-width="0.3"/>
<path d="M24.5447 55.5586C24.6201 55.4956 24.7349 55.5309 24.7625 55.625C25.3524 57.6506 27.4251 66.7553 19.1453 72.6777C19.0597 72.739 18.943 72.6857 18.9304 72.5859C18.7939 71.5037 18.5412 68.6266 19.1531 65.3281C19.7649 62.0299 21.2386 58.3216 24.5447 55.5586Z" fill="#79D397" stroke="black" stroke-width="0.3"/>
<g filter="url(#filter0_d_255_3547)">
<mask id="path-25-inside-1_255_3547" fill="white">
<path d="M15.9043 61.4697C17.1026 65.2835 18.3102 71.2887 17.3628 75.1832C17.3243 75.3376 17.1678 75.4316 17.0134 75.393C16.8644 75.356 16.7717 75.2086 16.8 75.06C17.0965 73.3919 17.0948 71.6789 17.0098 69.9889C16.8642 67.1331 16.4029 64.2584 15.9043 61.4697Z"/>
</mask>
<path d="M15.9043 61.4697C17.1026 65.2835 18.3102 71.2887 17.3628 75.1832C17.3243 75.3376 17.1678 75.4316 17.0134 75.393C16.8644 75.356 16.7717 75.2086 16.8 75.06C17.0965 73.3919 17.0948 71.6789 17.0098 69.9889C16.8642 67.1331 16.4029 64.2584 15.9043 61.4697Z" fill="#79D397"/>
<path d="M15.9043 61.4697L16.8583 61.17L14.9199 61.6457L15.9043 61.4697ZM17.3628 75.1832L18.3331 75.4254L18.3345 75.4196L17.3628 75.1832ZM17.0134 75.393L17.2555 74.4228L17.2548 74.4226L17.0134 75.393ZM16.8 75.06L17.7824 75.247L17.7846 75.235L16.8 75.06ZM17.0098 69.9889L18.0086 69.9387L18.0085 69.938L17.0098 69.9889ZM15.9043 61.4697L14.9503 61.7695C15.5352 63.6312 16.1227 66.0301 16.4472 68.4302C16.7743 70.8493 16.8212 73.1789 16.3912 74.9468L17.3628 75.1832L18.3345 75.4196C18.8518 73.293 18.7686 70.6728 18.4292 68.1622C18.0871 65.6326 17.4717 63.1221 16.8583 61.17L15.9043 61.4697ZM17.3628 75.1832L16.3926 74.941C16.4878 74.5597 16.8741 74.3276 17.2555 74.4228L17.0134 75.393L16.7713 76.3633C17.4616 76.5355 18.1608 76.1156 18.333 75.4254L17.3628 75.1832ZM17.0134 75.393L17.2548 74.4226C17.6245 74.5146 17.8526 74.8782 17.7823 75.247L16.8 75.06L15.8176 74.8729C15.6908 75.539 16.1042 76.1973 16.772 76.3635L17.0134 75.393ZM16.8 75.06L17.7846 75.235C18.1007 73.4561 18.0948 71.6548 18.0086 69.9387L17.0098 69.9889L16.0111 70.0391C16.0947 71.703 16.0922 73.3277 15.8154 74.885L16.8 75.06ZM17.0098 69.9889L18.0085 69.938C17.8595 67.0153 17.3884 64.0885 16.8887 61.2937L15.9043 61.4697L14.9199 61.6457C15.4175 64.4283 15.8689 67.2508 16.0111 70.0398L17.0098 69.9889Z" fill="black" mask="url(#path-25-inside-1_255_3547)"/>
</g>
<path d="M15.7781 19.9668C15.4377 21.9867 14.5198 23.7829 12.949 25.2119C12.5678 25.5432 12.1742 25.8567 11.7527 26.123L11.7507 26.124C11.5944 26.2258 11.2759 26.4258 11.1169 26.5225C10.5971 26.8373 10.0591 27.1984 9.56323 27.5449L9.56226 27.5459C7.36841 29.1214 4.82805 31.4175 4.01245 34.1348L3.93921 34.3994L3.93726 34.4082L3.92163 34.4902L3.92065 34.4922C3.91593 34.5186 3.91103 34.5545 3.90894 34.5723V34.5732C3.90301 34.627 3.88035 34.6565 3.85718 34.6738C3.83151 34.693 3.79565 34.7032 3.75757 34.7002C3.71953 34.6971 3.68677 34.6817 3.66577 34.6592C3.64686 34.6389 3.62847 34.6037 3.63257 34.543C3.66535 34.2899 3.73649 34.0443 3.81909 33.793L3.82007 33.7939C4.06424 33.0775 4.43121 32.4035 4.85327 31.7725L4.85425 31.7734C6.05097 30.0094 7.68454 28.5835 9.43823 27.3691C9.84127 27.0962 10.2846 26.8068 10.698 26.5537L10.697 26.5527C10.9809 26.3838 11.3731 26.1536 11.655 25.9756L11.6541 25.9746C11.9724 25.781 12.2716 25.5619 12.5593 25.333L12.8445 25.1016L12.8503 25.0967C12.9332 25.0204 13.1713 24.8031 13.2537 24.7275L13.2595 24.7217C13.3454 24.6331 13.5514 24.4164 13.6375 24.3271L13.6384 24.3281L13.6453 24.3203L13.8806 24.042H13.8816C14.8585 22.8735 15.4777 21.4497 15.7781 19.9668Z" fill="#79D397" stroke="black" stroke-width="0.3"/>
<path d="M92.8588 39.6709C92.8588 39.6709 92.1987 43.671 90.6274 46.1853" stroke="black" stroke-width="0.3" stroke-miterlimit="10" stroke-linecap="round" stroke-linejoin="round"/>
<path d="M87.073 52.5793C87.073 52.5793 89.0897 55.4418 90.6345 56.934C90.6345 56.934 92.797 50.534 93.9738 48.6099" stroke="black" stroke-width="0.3" stroke-miterlimit="10" stroke-linecap="round" stroke-linejoin="round"/>
<path d="M65.6147 18.6079C65.8784 18.8166 66.1653 19.0616 66.4536 19.3433C67.5207 20.3856 68.6076 21.9059 68.7427 23.8442C68.8114 24.8305 68.8415 25.5402 68.8823 26.064C68.9235 26.5924 68.9776 26.966 69.1021 27.3003C69.2274 27.6368 69.4204 27.9231 69.7212 28.2856C70.0194 28.6451 70.437 29.0948 71.0132 29.7476C72.1738 31.0625 72.7909 31.8966 73.0923 32.8032C73.3936 33.7094 73.3854 34.7041 73.2476 36.3569C73.1775 37.1973 73.4082 37.8882 73.73 38.4292C73.2317 37.8589 72.7799 37.0627 72.6587 35.9849C72.3406 33.1549 70.7362 30.5397 68.9741 28.6343C68.5612 28.1878 68.3144 27.5995 68.1606 26.9263C68.0068 26.2526 67.9487 25.5049 67.9077 24.7456C67.867 23.9911 67.8429 23.2214 67.7524 22.5239C67.662 21.8268 67.5031 21.1806 67.1831 20.6743C66.6552 19.8393 66.0873 19.1376 65.6147 18.6079Z" fill="#FF8502" stroke="black" stroke-width="0.3"/>
<path d="M63.9844 11.8452C63.9729 11.9816 63.9592 12.1208 63.9395 12.2622C63.6726 14.1765 62.606 16.5192 59.3945 18.2397L58.8828 17.5415C58.9261 17.5242 58.9809 17.5042 59.0439 17.4771C59.2225 17.4003 59.4752 17.2834 59.7734 17.1235C60.3698 16.8037 61.1501 16.3093 61.8828 15.6128C62.8284 14.7138 63.6937 13.4766 63.9844 11.8452Z" fill="#FF8502" stroke="black" stroke-width="0.2"/>
<path d="M42.6384 2.36816C42.1583 3.1967 41.6649 4.52305 41.5232 6.57715C41.3737 8.74526 42.259 10.414 43.1775 11.5371C43.6367 12.0986 44.105 12.5254 44.4587 12.8115C44.6135 12.9367 44.7466 13.0351 44.8474 13.1064L43.9656 13.2676C42.6778 12.7199 41.9086 11.6102 41.4597 10.623C41.2342 10.127 41.0904 9.66516 41.0037 9.32715C40.9603 9.15822 40.9312 9.01995 40.9128 8.9248C40.9038 8.87776 40.8974 8.84117 40.8933 8.81641C40.8913 8.80409 40.8894 8.79429 40.8884 8.78809C40.888 8.78513 40.8877 8.78274 40.8875 8.78125V8.7793C40.6308 6.07422 41.3603 4.20871 42.1492 3.02051C42.3123 2.77479 42.478 2.5577 42.6384 2.36816Z" fill="#FF8502" stroke="black" stroke-width="0.2"/>
<path opacity="0.5" d="M19.2842 42.0781C19.4947 41.9847 19.718 41.9916 19.9375 42.0615C20.1586 42.132 20.3694 42.2644 20.541 42.4102C20.7141 42.5572 20.8364 42.7079 20.8877 42.8037C22.3663 45.567 22.7857 47.979 22.5752 50C22.3646 52.0213 21.5231 53.6623 20.4629 54.8828C19.3141 56.2052 18.1413 57.8337 17.2578 59.1289C16.8159 59.7768 16.4455 60.3425 16.1855 60.7461C16.0849 60.9024 16.0009 61.0345 15.9355 61.1377C12.8816 53.0663 17.1221 45.914 18.6592 42.7715C18.8521 42.377 19.0729 42.172 19.2842 42.0781Z" fill="#FF422D" stroke="black" stroke-width="0.3"/>
<path opacity="0.5" d="M2.00098 48.8394C2.17865 48.8626 2.38912 48.9254 2.62988 49.0278C3.11178 49.2329 3.69471 49.5877 4.34766 50.0562C5.65227 50.9921 7.21318 52.3671 8.76465 53.8628C11.7413 56.7325 14.6592 60.0243 15.6533 61.4702C15.5976 61.4831 15.5314 61.4987 15.4551 61.5151C15.1918 61.5718 14.8103 61.6472 14.3398 61.7192C13.3982 61.8634 12.1012 61.9963 10.6807 61.9526C7.8335 61.8651 4.52455 61.0691 2.5459 58.2759C-1.4722 52.6036 0.54605 49.3781 1.58691 48.8813C1.68725 48.8335 1.82305 48.816 2.00098 48.8394Z" fill="#FF422D" stroke="black" stroke-width="0.3"/>
<path d="M6.09034 30.6277C6.09034 30.6277 4.03821 28.1218 4.65301 25.6817C5.67317 21.6327 8.68015 26.2718 6.09034 30.6277Z" fill="#79D397"/>
<path d="M10.042 27.667C10.9647 27.2456 12.1668 26.9135 13.335 27.2197C13.8297 27.3494 14.1797 27.5059 14.4102 27.6689C14.6407 27.8321 14.74 27.9932 14.7627 28.1328C14.7849 28.2701 14.7389 28.4205 14.6064 28.5762C14.4728 28.7332 14.2577 28.8864 13.9697 29.0166C12.8501 29.5228 10.7529 29.6185 8.68848 28.4473C8.75287 28.4014 8.83298 28.3453 8.92773 28.2832C9.19773 28.1062 9.5829 27.8767 10.042 27.667Z" fill="#79D397" stroke="black" stroke-width="0.3"/>
<path d="M5.69727 24.2817C5.83451 24.2581 5.98548 24.3029 6.14258 24.4341C6.30083 24.5662 6.45597 24.7794 6.58887 25.0659C7.10563 26.1804 7.22194 28.276 6.07129 30.3511C6.02489 30.2872 5.96714 30.2086 5.9043 30.1147C5.72469 29.8464 5.49143 29.4635 5.27734 29.0063C4.84719 28.0877 4.50378 26.8893 4.79883 25.7183C4.92382 25.2222 5.07642 24.8703 5.2373 24.6382C5.39807 24.4064 5.55798 24.3059 5.69727 24.2817Z" fill="#79D397" stroke="black" stroke-width="0.3"/>
<path d="M11.9075 19.4111C12.0447 19.3875 12.1957 19.4323 12.3528 19.5635C12.511 19.6956 12.6662 19.9087 12.7991 20.1953C13.3158 21.3098 13.4321 23.4053 12.2815 25.4805C12.2351 25.4166 12.1773 25.338 12.1145 25.2441C11.9349 24.9758 11.7016 24.5929 11.4875 24.1357C11.0574 23.2171 10.714 22.0187 11.009 20.8477C11.134 20.3516 11.2866 19.9997 11.4475 19.7676C11.6083 19.5358 11.7682 19.4353 11.9075 19.4111Z" fill="#79D397" stroke="black" stroke-width="0.3"/>
<path d="M19.2629 18.4302C19.5454 18.424 19.7211 18.4946 19.8225 18.5933C19.9222 18.6904 19.9749 18.8385 19.9612 19.0425C19.9472 19.2482 19.866 19.4999 19.7122 19.7759C19.1138 20.849 17.4856 22.1744 15.1301 22.4624C15.1546 22.3871 15.1846 22.2936 15.2239 22.187C15.3355 21.884 15.5081 21.4706 15.7522 21.0288C16.2428 20.141 17.0111 19.1588 18.1321 18.7095C18.6066 18.5193 18.9807 18.4364 19.2629 18.4302Z" fill="#79D397" stroke="black" stroke-width="0.3"/>
<path d="M14.9534 10.2642C15.0884 10.2299 15.2426 10.2628 15.4094 10.3813C15.5775 10.5008 15.7488 10.7016 15.9036 10.9771C16.5054 12.0482 16.7841 14.1283 15.7981 16.2866C15.7468 16.2265 15.6836 16.1519 15.6135 16.063C15.4136 15.8094 15.1506 15.4465 14.9016 15.0073C14.4013 14.125 13.9661 12.9565 14.1692 11.7661C14.2552 11.2619 14.3804 10.8996 14.5227 10.6558C14.665 10.412 14.8163 10.2991 14.9534 10.2642Z" fill="#79D397" stroke="black" stroke-width="0.3"/>
<path d="M15.489 51.3345C15.5632 51.336 15.6412 51.3511 15.7214 51.3862C15.7162 51.4442 15.7099 51.5021 15.7048 51.5601L15.4724 51.5552C15.4746 51.5257 15.4813 51.4371 15.489 51.3345Z" fill="#FF422D" stroke="black"/>
<path d="M17.6716 39.751C18.1648 39.751 18.5642 40.1504 18.5642 40.6436C18.5642 41.1367 18.1648 41.5361 17.6716 41.5361C17.1785 41.5361 16.7791 41.1367 16.7791 40.6436C16.7791 40.1504 17.1785 39.751 17.6716 39.751Z" fill="#FF422D" stroke="black" stroke-width="0.3"/>
<path d="M15.2069 42.3907C15.4821 43.5027 15.6451 44.6473 15.7662 45.786C15.8974 47.0872 15.9572 48.4106 15.9236 49.7176L15.9095 50.2095C15.9027 50.3565 15.6823 50.359 15.6787 50.2059C15.705 47.9226 15.6059 45.6355 15.2982 43.3714C15.2556 43.0478 15.2066 42.7245 15.1509 42.4034C15.1479 42.3876 15.1583 42.3723 15.1742 42.3696C15.189 42.367 15.2031 42.3764 15.2069 42.3907Z" fill="#FF422D"/>
<path d="M15.0706 41.3481C15.4155 41.3481 15.6954 41.6273 15.6956 41.9722C15.6956 42.3172 15.4156 42.5972 15.0706 42.5972C14.7257 42.597 14.4465 42.3171 14.4465 41.9722C14.4467 41.6274 14.7258 41.3483 15.0706 41.3481Z" fill="#FF422D" stroke="black" stroke-width="0.3"/>
<path d="M3.23202 44.8884C4.0753 48.303 5.3325 51.6051 6.79385 54.8C6.85196 54.9328 6.65458 55.0358 6.58421 54.8967C6.58421 54.8967 6.30164 54.2981 6.30164 54.2981C5.32037 52.2037 4.51373 50.0152 3.86939 47.7943C3.72463 47.2753 3.57426 46.7174 3.44938 46.1943C3.34978 45.7645 3.25193 45.3347 3.17573 44.8994C3.17299 44.8837 3.18342 44.8689 3.19902 44.8662C3.21427 44.8635 3.22886 44.8735 3.23202 44.8884Z" fill="#FF422D"/>
<path d="M3.10596 43.4194C3.59913 43.4194 3.99853 43.8188 3.99854 44.312C3.99854 44.8052 3.59914 45.2046 3.10596 45.2046C2.61278 45.2046 2.21338 44.8052 2.21338 44.312C2.21339 43.8188 2.61279 43.4194 3.10596 43.4194Z" fill="#FF422D" stroke="black" stroke-width="0.3"/>
<path d="M43.3606 29.941C42.9423 29.0821 42.2777 28.3625 41.3761 28.0786C40.4569 27.8021 39.3784 27.9421 38.606 28.5229C38.1114 28.9017 37.7429 29.4374 37.5315 30.022C37.3994 30.3556 36.9055 30.2058 36.9809 29.8551C37.0262 29.6668 37.0928 29.4897 37.1726 29.315C37.4831 28.6306 38.0194 28.0421 38.6964 27.7014C40.0374 27.044 41.8155 27.2803 42.7649 28.4841C42.8802 28.6239 42.981 28.7736 43.0717 28.9274C43.249 29.238 43.3859 29.5651 43.4554 29.9135C43.4646 29.9724 43.3843 29.9969 43.3606 29.941Z" fill="#D05227"/>
<path d="M35.6062 29.2301C35.8613 29.3578 36.1398 29.4574 36.417 29.5115C36.6893 29.5673 36.9578 29.5763 37.2302 29.6216C37.4016 29.6443 37.5251 29.806 37.484 29.9774C37.4305 30.2128 37.1769 30.2176 36.9823 30.2127C36.7233 30.2039 36.4686 30.1298 36.2371 30.0158C35.9299 29.8603 35.6577 29.648 35.4787 29.3477C35.4322 29.2658 35.5287 29.1791 35.6062 29.2301Z" fill="#D05227"/>
<path d="M36.2631 27.9579C36.4935 28.1252 36.7455 28.2741 37.0043 28.3838C37.2686 28.5015 37.5437 28.5662 37.8103 28.6743C38.1026 28.8083 37.9894 29.2463 37.6727 29.2266C37.3272 29.2073 36.9949 29.0696 36.7187 28.8643C36.4428 28.6551 36.2147 28.3914 36.1026 28.0567C36.0728 27.9605 36.1907 27.8905 36.2631 27.9579Z" fill="#D05227"/>
<path d="M37.1727 26.9917C37.4 27.1772 37.6468 27.3362 37.9062 27.4596C38.153 27.5803 38.4138 27.6594 38.6616 27.7787C38.8196 27.8496 38.8912 28.0403 38.8032 28.193C38.6497 28.4646 38.246 28.2894 38.0273 28.1943C37.7175 28.0458 37.4514 27.8018 37.2648 27.5162C37.1729 27.3724 37.0986 27.222 37.062 27.0498C37.0545 27.0149 37.0768 26.9806 37.1117 26.9732C37.135 26.9681 37.1564 26.9766 37.1727 26.9917Z" fill="#D05227"/>
<path d="M42.7226 24.009C43.2732 24.1449 43.559 24.434 43.5198 25.1488C43.5043 25.4304 43.1739 25.6193 42.8186 25.565C41.8237 25.413 40.3468 24.788 38.6439 25.1105C36.6505 25.4879 36.671 25.9066 36.2609 26.0682C36.0083 26.1678 35.6016 25.1645 37.9214 24.3841C39.8745 23.7271 41.3583 23.6722 42.7226 24.009Z" fill="#D05227"/>
<path d="M33.9915 16.7368C33.421 17.2181 32.6702 17.9207 31.9485 18.8032C31.5763 19.2585 31.3421 19.8716 31.1682 20.5503C30.9943 21.2292 30.8768 21.9872 30.7444 22.7329C30.6114 23.4816 30.4629 24.2202 30.2268 24.8745C29.9908 25.5286 29.6698 26.0909 29.1965 26.4917C27.2208 28.1649 25.3195 30.5576 24.6633 33.314C24.3455 34.6488 23.5644 35.4809 22.8606 35.98C22.8457 35.9905 22.8295 35.999 22.8147 36.0093C23.3576 35.4916 23.893 34.707 23.9358 33.5981C23.9998 31.9415 24.1117 30.9439 24.5256 30.0708C24.9398 29.1973 25.6612 28.4381 26.9729 27.2739C27.6254 26.6948 28.0919 26.3009 28.4309 25.981C28.7719 25.6591 28.994 25.403 29.1555 25.0913C29.3163 24.7811 29.4138 24.4226 29.5188 23.9038C29.6231 23.3881 29.7385 22.6917 29.927 21.7183C30.2997 19.7938 31.5742 18.4073 32.7649 17.4985C33.2748 17.1094 33.7686 16.8101 34.1653 16.5942C34.1098 16.6397 34.0511 16.6865 33.9915 16.7368Z" fill="#FF8502" stroke="black" stroke-width="0.2"/>
<path d="M1.07838 46.3831C2.72469 48.3659 4.59639 50.1511 6.56048 51.8155C6.67046 51.9131 6.53336 52.0861 6.41224 51.9925C6.41225 51.9925 6.03594 51.6853 6.03594 51.6853C4.91498 50.7637 3.85353 49.7433 2.87424 48.6716C2.43561 48.1955 2.01676 47.7014 1.61339 47.1952C1.41465 46.9396 1.21661 46.6841 1.03219 46.4171C1.02318 46.404 1.02645 46.3861 1.03949 46.3772C1.05203 46.3684 1.06919 46.3713 1.07838 46.3831Z" fill="#FF422D"/>
<path d="M0.808105 45.4312C1.14755 45.4312 1.42236 45.706 1.42236 46.0454C1.42236 46.3849 1.14755 46.6597 0.808105 46.6597C0.468655 46.6597 0.193852 46.3849 0.193848 46.0454C0.193848 45.706 0.468654 45.4312 0.808105 45.4312Z" fill="#FF422D" stroke="black" stroke-width="0.3"/>
<path d="M78.3093 8.41504C78.3301 8.51185 78.4067 8.5876 78.5037 8.60742L81.8562 9.29199L78.5095 9.8877C78.4346 9.90112 78.3715 9.94742 78.3357 10.0117L78.3093 10.082L77.5544 13.6895L76.7527 10.0791L76.7263 10.0098C76.6904 9.94644 76.6276 9.90105 76.5535 9.8877L73.2498 9.29199L76.5603 8.60742C76.6557 8.58751 76.731 8.51302 76.7527 8.41797L77.5544 4.89844L78.3093 8.41504Z" fill="#FF8502" stroke="black" stroke-width="0.3"/>
<path d="M24.1638 4.9834C24.1819 5.06703 24.248 5.13229 24.3318 5.14941L26.2869 5.54883L24.3367 5.89648C24.2717 5.90807 24.2172 5.94816 24.1863 6.00391L24.1638 6.06445L23.7126 8.21875L23.2332 6.06152C23.2143 5.97685 23.1466 5.91202 23.0613 5.89648L21.1355 5.54883L23.0662 5.14941C23.1487 5.13232 23.2143 5.06847 23.2332 4.98633L23.7117 2.88086L24.1638 4.9834Z" fill="#FF8502" stroke="black" stroke-width="0.3"/>
<path d="M6.63525 17.0083C6.64268 17.0428 6.67006 17.0695 6.70459 17.0767L8.07666 17.356L6.70752 17.6001C6.68076 17.6049 6.65786 17.6211 6.64502 17.644L6.63525 17.6694L6.32861 19.1323L6.00342 17.6685L5.99365 17.644C5.98082 17.6213 5.95871 17.6049 5.93213 17.6001L4.58057 17.356L5.93408 17.0767C5.96827 17.0696 5.99566 17.0433 6.00342 17.0093L6.32861 15.5796L6.63525 17.0083Z" fill="#FF8502" stroke="black" stroke-width="0.1"/>
<path opacity="0.5" d="M42.0657 50.0164C42.0657 50.0164 48.5969 53.7493 53.7626 49.8413C53.7626 49.8413 48.9321 52.4085 42.0657 50.0164Z" fill="#FF422D"/>
<path d="M55.6399 8.66943C55.3887 10.3864 54.698 12.2859 53.0383 13.6333L52.8088 13.5444C52.8279 13.5256 52.8501 13.5054 52.8733 13.4819C52.9854 13.3686 53.1439 13.2011 53.3303 12.9839C53.7032 12.5494 54.1887 11.9144 54.6399 11.1128C55.0312 10.4176 55.3959 9.59555 55.6399 8.66943Z" fill="#FF8502" stroke="black" stroke-width="0.2"/>
<path d="M54.8819 30.4328C55.6818 30.4328 56.3303 29.7844 56.3303 28.9845C56.3303 28.1846 55.6818 27.5361 54.8819 27.5361C54.082 27.5361 53.4336 28.1846 53.4336 28.9845C53.4336 29.7844 54.082 30.4328 54.8819 30.4328Z" fill="#D05227"/>
<path d="M40.0882 30.4328C40.8881 30.4328 41.5366 29.7844 41.5366 28.9845C41.5366 28.1846 40.8881 27.5361 40.0882 27.5361C39.2883 27.5361 38.6399 28.1846 38.6399 28.9845C38.6399 29.7844 39.2883 30.4328 40.0882 30.4328Z" fill="#D05227"/>
<path opacity="0.5" d="M8.47778 39.2261C9.10073 39.2838 9.81303 39.6219 10.552 40.1792C11.2887 40.7348 12.0405 41.4998 12.7395 42.3911C14.1384 44.175 15.3155 46.4488 15.7532 48.5317C16.1923 50.6213 16.1778 53.879 16.051 56.6274C15.9878 57.9986 15.8967 59.2382 15.8215 60.1353C15.784 60.5837 15.75 60.9473 15.7258 61.1978C15.7182 61.2766 15.7109 61.3442 15.7053 61.3999C15.6358 61.3762 15.5461 61.3458 15.4397 61.3071C15.1574 61.2045 14.753 61.0482 14.2659 60.8345C13.2907 60.4067 11.9861 59.7493 10.6672 58.8306C8.02628 56.9909 5.34924 54.1193 5.10767 49.9644C4.86246 45.7464 5.08544 42.9876 5.68774 41.3188C5.98801 40.4871 6.37811 39.938 6.83911 39.6108C7.2977 39.2855 7.84297 39.1673 8.47778 39.2261Z" fill="#FF422D" stroke="black" stroke-width="0.3"/>
<defs>
<filter id="filter0_d_255_3547" x="11.9043" y="61.4697" width="9.79883" height="21.9321" filterUnits="userSpaceOnUse" color-interpolation-filters="sRGB">
<feFlood flood-opacity="0" result="BackgroundImageFix"/>
<feColorMatrix in="SourceAlpha" type="matrix" values="0 0 0 0 0 0 0 0 0 0 0 0 0 0 0 0 0 0 127 0" result="hardAlpha"/>
<feOffset dy="4"/>
<feGaussianBlur stdDeviation="2"/>
<feComposite in2="hardAlpha" operator="out"/>
<feColorMatrix type="matrix" values="0 0 0 0 0 0 0 0 0 0 0 0 0 0 0 0 0 0 0.25 0"/>
<feBlend mode="normal" in2="BackgroundImageFix" result="effect1_dropShadow_255_3547"/>
<feBlend mode="normal" in="SourceGraphic" in2="effect1_dropShadow_255_3547" result="shape"/>
</filter>
</defs>
</svg>
