<svg width="20" height="20" viewBox="0 0 20 20" fill="none" xmlns="http://www.w3.org/2000/svg">
<path d="M8 15.9048V15.7985C8 15.0085 7.504 14.3199 6.883 13.8271C6.07246 13.1848 5.48289 12.308 5.1959 11.3181C4.90891 10.3282 4.93868 9.27416 5.28109 8.30182C5.62351 7.32948 6.26164 6.48695 7.10716 5.89083C7.95268 5.29472 8.96377 4.9745 10.0005 4.9745C11.0372 4.9745 12.0483 5.29472 12.8938 5.89083C13.7394 6.48695 14.3775 7.32948 14.7199 8.30182C15.0623 9.27416 15.0921 10.3282 14.8051 11.3181C14.5181 12.308 13.9285 13.1848 13.118 13.8271C12.496 14.3209 12 15.0085 12 15.7985V15.9048M8 15.9048V17.8921C8 18.1556 8.10536 18.4084 8.29289 18.5947C8.48043 18.7811 8.73478 18.8858 9 18.8858H11C11.2652 18.8858 11.5196 18.7811 11.7071 18.5947C11.8946 18.4084 12 18.1556 12 17.8921V15.9048M8 15.9048H12M18 9.94288H19M2 9.94288H1M10 1.99365V1M15.657 4.32178L16.364 3.61927M4.344 4.32178L3.636 3.61927M10 12.9238V10.9365" stroke="#C180FA" stroke-width="2" stroke-linecap="round" stroke-linejoin="round"/>
</svg>
