<svg width="20" height="20" viewBox="0 0 20 20" fill="none" xmlns="http://www.w3.org/2000/svg">
<path d="M4.58334 12.9168C2.74001 12.181 1.66667 10.361 1.66667 8.47935C1.66667 6.03768 3.59751 3.62518 4.95251 2.23352C5.68834 1.47685 6.81084 1.47685 7.54751 2.23352C7.95751 2.65435 8.30417 3.16852 8.75001 3.74935M6.66667 12.4385C6.66667 9.47518 9.12417 6.54685 10.8492 4.85518C11.7858 3.93768 13.2142 3.93768 14.1508 4.85518C15.8758 6.54685 18.3333 9.47518 18.3333 12.4385C18.3333 15.3443 16.125 18.3335 12.5 18.3335C8.87501 18.3335 6.66667 15.3443 6.66667 12.4385Z" stroke="#DB4193" stroke-width="1.5" stroke-linecap="round" stroke-linejoin="round"/>
<path d="M15.4167 12.917C15.4167 14.7587 14.1667 15.417 12.9167 15.417" stroke="#DB4193" stroke-width="1.5" stroke-linecap="round" stroke-linejoin="round"/>
</svg>
