<?xml version="1.0" encoding="UTF-8"?>
<svg id="Layer_1" data-name="Layer 1" xmlns="http://www.w3.org/2000/svg" viewBox="0 0 1080 1080">
  <defs>
    <style>
      .cls-1 {
        fill: red;
      }
    </style>
  </defs>
  <g>
    <path class="cls-1" d="M373.6,965.25c-7.27-1.06-14.53-2.19-21.81-3.17-35.92-4.8-70.15-15.05-102.63-31.24-38.17-19.02-70.98-44.63-97.03-78.53-25.44-33.1-41.07-70.45-47.68-111.66-5.74-35.81-4.09-71.38,2.88-106.83,9.35-47.51,27.44-91.76,50.35-134.18,21.01-38.9,46-75.16,72.99-110.1,27.32-35.36,51.27-72.78,69.66-113.61,14.91-33.09,25.76-67.4,30.09-103.55,3.26-27.26,2.64-54.37-4.62-81.07-.47-1.74-1.04-3.46-1.66-5.14-1.77-4.76,.47-8.34,3.37-11.75,2.41,0,4.82,0,7.23,0,7.91,8.62,15.94,17.12,23.71,25.87,38.68,43.56,77.98,86.59,115.76,130.92,47.91,56.21,91.49,115.7,128.75,179.61,24.15,41.43,44.86,84.46,59.37,130.29,10.6,33.46,16.65,67.72,18.54,102.78,1.58,29.27,.84,58.43-3.89,87.36-10.57,64.7-37.36,121.02-87.08,165.07-29.16,25.84-62.8,43.76-99.99,55.15-20.94,6.41-42.31,10.54-64.13,12.42-2.06,.18-4.07,.89-6.11,1.36h-46.08Zm-27.06-854.25c0,5.57,.02,10.32,0,15.06-.08,15.14,.68,30.36-.52,45.41-.97,12.07-3.85,24.07-6.75,35.89-3.58,14.6-7.25,29.27-12.32,43.4-9.53,26.53-21.8,51.87-35.79,76.38-18.11,31.72-40.43,60.48-61.87,89.91-14.89,20.43-29.2,41.34-42.65,62.74-20.15,32.05-37.21,65.76-49.35,101.73-5.02,14.89-9.71,29.94-13.5,45.18-4.55,18.29-6.84,37.04-7.71,55.86-.91,19.65,.2,39.24,3.58,58.68,2.82,16.22,7.15,32.01,13.34,47.24,8.43,20.74,19.52,39.95,33.51,57.51,13.2,16.57,28.29,31.14,45.19,43.84,24.04,18.06,50.31,32.03,78.75,41.73,12.38,4.22,25.01,7.83,37.71,10.96,8.19,2.02,16.69,2.87,25.1,3.9,10.81,1.33,21.65,3.05,32.5,3.27,13.16,.26,26.35-.98,39.54-1.4,18.57-.59,36.56-4.69,54.32-9.5,19.27-5.22,37.74-12.77,55.32-22.37,31.58-17.24,58.39-39.96,79.49-69.21,26.26-36.39,40.97-77.23,47.69-121.39,2.81-18.45,4.01-36.95,4.18-55.48,.14-15.1-1.15-30.25-2.58-45.3-1.32-13.93-3.09-27.87-5.73-41.6-2.26-11.75-5.7-23.32-9.2-34.79-10.95-35.94-26.16-70.12-43.83-103.22-27.93-52.34-61-101.36-97.27-148.19-20.77-26.82-42.44-52.96-64.03-79.14-10.8-13.1-22.21-25.7-33.56-38.33-19.9-22.15-39.97-44.16-60.01-66.19-.99-1.09-2.43-1.79-3.54-2.59Z"/>
    <path class="cls-1" d="M698.78,416.54c1.78-17.96,3.45-35.93,5.37-53.87,3.33-31.14,2.87-61.94-7.89-91.83-5.04-14.01-12.08-26.89-23.15-37.21-2.96-2.76-4.17-6.04-2.2-9.73,2.17-4.07,5.83-4.92,10.07-3.59,16.92,5.32,33.88,10.54,50.75,16.02,35.64,11.58,70.63,24.83,104.19,41.61,29.18,14.6,57.12,31.19,80.55,54.25,25.52,25.12,43.87,54.67,51.75,89.89,9.58,42.84-1.67,80.41-31.77,111.83-28.93,30.2-65.09,45.43-106.84,46.45-52.24,1.28-96.84-29.03-115.84-77.9-10.37-26.69-14.27-50.47-14.99-85.92Zm2.54-173.75l-.67,1.24c.6,1.16,1.19,2.33,1.8,3.48,8.74,16.39,14.22,33.8,16.3,52.25,.8,7.12,1.7,14.27,1.83,21.42,.23,12.28,.43,24.61-.37,36.85-.8,12.19-3.36,24.26-4.2,36.44-.88,12.73-.93,25.53-.75,38.3,.13,8.66,.54,17.44,2.17,25.91,2.09,10.89,5.15,21.63,8.48,32.22,5.35,16.99,14.53,31.91,27.13,44.46,15.74,15.67,34.69,24.77,56.86,28.24,17.14,2.68,33.83,1.51,50.29-2.57,26.66-6.61,49.52-20.09,68.11-40.57,14.94-16.46,24.47-35.69,26.96-57.62,1.94-17.02,.4-34.18-5.36-50.61-10.86-30.98-28.84-57.19-53.94-78.26-32.55-27.33-70.14-46.01-109.35-61.46-24.76-9.75-50.08-18.08-75.17-26.96-3.29-1.16-6.74-1.86-10.11-2.77Z"/>
    <path class="cls-1" d="M829.39,907.96c-27.88-.87-55.33-11.26-74.73-37.8-14.61-19.98-18.64-42.99-17.43-67.22,1.39-27.8,10.56-53.53,20.81-79.02,7.29-18.15,11.85-36.92,11.45-56.68-.26-12.86-2.7-25.09-9.39-36.26-2.11-3.52-1.94-6.94,1.07-9.86,2.86-2.78,6.23-2.96,9.53-.92,41.73,25.92,83.01,52.47,117.42,88.11,15.24,15.79,28.61,32.99,36.85,53.62,7.73,19.37,12.17,39.33,10.23,60.38-2.82,30.62-18.19,53.36-43.87,69.38-17.65,11.01-37.15,16.08-61.94,16.26Zm-45.43-261.28c-.4,.3-.8,.61-1.2,.91,.66,5.02,1.9,10.04,1.86,15.05-.07,8.52-.72,17.06-1.51,25.55-1.37,14.85-5.78,28.96-11.34,42.71-8.35,20.65-15.87,41.47-18.63,63.81-1.91,15.43-1.39,30.55,3.35,45.33,10.19,31.78,33.66,47.88,65.37,51.75,25.16,3.08,48.93-2.73,69.51-18.57,14.87-11.44,24.27-26.55,27.54-44.87,1.5-8.4,.74-17.27,.5-25.91-.37-13.49-4.76-26.02-10.15-38.21-8.7-19.7-22.26-35.91-37.41-50.85-24.07-23.74-51.54-43.13-79.72-61.57-2.69-1.76-5.44-3.42-8.16-5.13Z"/>
    <path class="cls-1" d="M602.22,678.05c-2.65,22.99-9.52,44.81-19.19,65.71-10.69,23.1-24.59,44.15-42.12,62.69-5.68,6-11.45,11.93-17.44,17.61-4.57,4.33-10.69,2.99-12.19-3.03-.6-2.43,1.23-6.24,3.13-8.38,8.55-9.66,18.02-18.54,26.24-28.47,16.55-19.99,29.62-42.17,37.25-67.08,4.29-14.01,8.4-28.29,10.34-42.75,2.36-17.57,3.94-35.41,.72-53.25-1.79-9.95-1.93-20.22-4.09-30.07-2.44-11.13-6.35-21.93-9.53-32.9-.64-2.21-1.34-4.59-1.16-6.82,.29-3.63,2.9-5.37,6.43-5.67,3.82-.33,6.31,1.72,7.66,4.97,1.83,4.42,3.62,8.91,4.81,13.52,3.16,12.22,6.48,24.44,8.81,36.83,1.7,9.06,1.97,18.39,2.81,27.6,.45,4.91-1.13,37.94-2.46,49.5Z"/>
  </g>
  <path class="cls-1" d="M912.23,410.31c3.43,11.06,3.83,23.01,2.17,35.49-1.83,13.8-6.24,27.77-13.6,41.84-2.38,4.56-4.85,9.11-7.51,13.63-2.03,3.45-6.36,4.91-8.71,2.74-.94-.87-.6-3.17,.17-4.76,3.45-7.14,7.68-14.24,10.86-21.38,6.39-14.39,9.99-28.57,9.4-42.15-.33-7.63-.84-15.33-2.82-22.37-2.4-8.56-5.38-16.98-11.51-23.8-3.42-3.8-5.82-8.3-9.46-11.93-4.11-4.1-9.12-7.57-13.68-11.36-.92-.76-1.92-1.58-2.3-2.63-.63-1.7,.7-3.35,2.95-4.66,2.44-1.42,4.54-1.35,6.16-.37,2.2,1.34,4.38,2.73,6.21,4.37,4.83,4.35,9.77,8.64,14.09,13.34,3.16,3.44,5.43,7.47,8.07,11.27,1.4,2.02,7.8,17.16,9.53,22.72Z"/>
</svg>