<svg width="17" height="15" viewBox="0 0 17 15" fill="none" xmlns="http://www.w3.org/2000/svg">
<path d="M11.8555 0.799805C13.006 0.799858 14.1106 1.24479 14.9258 2.03809C15.7411 2.8316 16.2002 3.90961 16.2002 5.03418C16.2001 6.20574 15.7096 7.25442 14.9248 8.02637L14.9238 8.02734L8.63965 14.1436L8.5 14.2793L8.36035 14.1436L2.07617 8.02734L2.0752 8.02637C1.29044 7.25442 0.799939 6.20574 0.799805 5.03418C0.799805 3.90961 1.25892 2.8316 2.07422 2.03809C2.88936 1.24479 3.99404 0.799858 5.14453 0.799805L5.40137 0.806641C5.99864 0.839797 6.5833 0.994032 7.11816 1.25977C7.65114 1.5246 8.12098 1.89452 8.49902 2.34473C9.29415 1.39709 10.5041 0.799805 11.8555 0.799805ZM11.8545 1.96875C11.2976 1.96799 10.7507 2.11037 10.2695 2.38184C9.78814 2.65354 9.38912 3.04447 9.11426 3.51367L9.05664 3.6123H7.94336L7.88574 3.51367C7.34499 2.59091 6.32026 1.96875 5.14453 1.96875C4.30613 1.9688 3.50338 2.29282 2.91211 2.86816C2.32096 3.44348 1.98926 4.22297 1.98926 5.03418V5.03516C1.98733 5.43588 2.06719 5.83345 2.22461 6.2041C2.3821 6.57485 2.61419 6.91202 2.90723 7.19531H2.9082L8.5 12.6299L14.0918 7.19531C14.6409 6.6533 15.0106 5.87422 15.0107 5.03418C15.0107 4.22297 14.679 3.44348 14.0879 2.86816C13.4966 2.29282 12.6939 1.9688 11.8555 1.96875H11.8545Z" fill="#DB4193" stroke="#EC4F7C" stroke-width="0.4"/>
</svg>
