<svg width="20" height="20" viewBox="0 0 20 20" fill="none" xmlns="http://www.w3.org/2000/svg">
<path d="M6.17663 13.8236C4.20526 11.8484 2.68919 9.46632 1.73447 6.84406C1.20922 5.41039 1.69047 3.83556 2.7703 2.75573L3.43855 2.08839C3.6182 1.90838 3.8316 1.76556 4.06652 1.66811C4.30143 1.57067 4.55326 1.52051 4.80759 1.52051C5.06192 1.52051 5.31375 1.57067 5.54867 1.66811C5.78358 1.76556 5.99698 1.90838 6.17663 2.08839L7.74138 3.65314C7.9214 3.8328 8.06422 4.04619 8.16166 4.28111C8.25911 4.51603 8.30927 4.76786 8.30927 5.02218C8.30927 5.27651 8.25911 5.52834 8.16166 5.76326C8.06422 5.99818 7.9214 6.21157 7.74138 6.39123L7.35638 6.77623C7.20228 6.9303 7.08003 7.11322 6.99663 7.31454C6.91323 7.51586 6.8703 7.73164 6.8703 7.94956C6.8703 8.16747 6.91323 8.38326 6.99663 8.58458C7.08003 8.7859 7.20228 8.96882 7.35638 9.12289L10.8764 12.6438C11.0305 12.7979 11.2134 12.9202 11.4147 13.0036C11.616 13.087 11.8318 13.1299 12.0497 13.1299C12.2676 13.1299 12.4834 13.087 12.6847 13.0036C12.8861 12.9202 13.069 12.7979 13.2231 12.6438L13.609 12.2588C13.7886 12.0788 14.002 11.936 14.2369 11.8385C14.4719 11.7411 14.7237 11.6909 14.978 11.6909C15.2323 11.6909 15.4842 11.7411 15.7191 11.8385C15.954 11.936 16.1674 12.0788 16.347 12.2588L17.9118 13.8236C18.0918 14.0032 18.2346 14.2166 18.3321 14.4515C18.4295 14.6864 18.4797 14.9383 18.4797 15.1926C18.4797 15.4469 18.4295 15.6988 18.3321 15.9337C18.2346 16.1686 18.0918 16.382 17.9118 16.5616L17.2445 17.229C16.1646 18.3097 14.5898 18.791 13.1561 18.2657C10.5339 17.311 8.15184 15.7949 6.17663 13.8236Z" stroke="#9E3452" stroke-width="1.5" stroke-linejoin="round"/>
</svg>
