<svg width="14" height="14" viewBox="0 0 14 14" fill="none" xmlns="http://www.w3.org/2000/svg">
<path d="M8.3125 10.5H1.75L1.74869 3.89638L6.75106 7.35963C6.82421 7.41024 6.91105 7.43735 7 7.43735C7.08895 7.43735 7.17579 7.41024 7.24894 7.35963L12.25 3.89812V7.875H13.125V3.5C13.1247 3.26804 13.0324 3.04568 12.8683 2.88166C12.7043 2.71765 12.482 2.62535 12.25 2.625H1.75C1.51794 2.625 1.29538 2.71719 1.13128 2.88128C0.967187 3.04538 0.875 3.26794 0.875 3.5V10.5C0.875347 10.732 0.967646 10.9543 1.13166 11.1183C1.29568 11.2824 1.51804 11.3747 1.75 11.375H8.3125V10.5ZM11.2871 3.5L7 6.468L2.71294 3.5H11.2871Z" fill="#B3B3B3"/>
<path d="M11.375 12.25C12.3415 12.25 13.125 11.4665 13.125 10.5C13.125 9.5335 12.3415 8.75 11.375 8.75C10.4085 8.75 9.625 9.5335 9.625 10.5C9.625 11.4665 10.4085 12.25 11.375 12.25Z" fill="#B3B3B3"/>
</svg>
