<svg width="20" height="14" viewBox="0 0 20 14" fill="none" xmlns="http://www.w3.org/2000/svg">
<path d="M17.875 0.125H1.375C1.01033 0.125 0.660591 0.269866 0.402728 0.527728C0.144866 0.785591 0 1.13533 0 1.5V12.5C0 12.8647 0.144866 13.2144 0.402728 13.4723C0.660591 13.7301 1.01033 13.875 1.375 13.875H17.875C18.2397 13.875 18.5894 13.7301 18.8473 13.4723C19.1051 13.2144 19.25 12.8647 19.25 12.5V1.5C19.25 1.13533 19.1051 0.785591 18.8473 0.527728C18.5894 0.269866 18.2397 0.125 17.875 0.125ZM16.3625 1.5L9.625 6.16125L2.8875 1.5H16.3625ZM1.375 12.5V2.12562L9.23313 7.56375C9.34821 7.64359 9.48493 7.68637 9.625 7.68637C9.76507 7.68637 9.90179 7.64359 10.0169 7.56375L17.875 2.12562V12.5H1.375Z" fill="#01813E"/>
</svg>
