<svg width="17" height="16" viewBox="0 0 17 16" fill="none" xmlns="http://www.w3.org/2000/svg">
<path d="M2.10071 14.4033L4.56814 13.5806L5.01257 13.7966C6.04107 14.2953 7.2165 14.561 8.5 14.561C12.7451 14.561 15.7857 11.5299 15.7857 7.88721C15.7857 4.23119 12.767 1.21342 8.5 1.21342C4.233 1.21342 1.21429 4.23119 1.21429 7.88721C1.22146 9.28631 1.68247 10.6454 2.52814 11.7604L2.93857 12.3065L2.10071 14.402V14.4033ZM1.24221 15.9686C1.13233 16.0054 1.0142 16.01 0.901789 15.9818C0.789375 15.9537 0.687369 15.894 0.607819 15.8098C0.52827 15.7255 0.474502 15.6203 0.452865 15.5066C0.431228 15.3928 0.442626 15.2752 0.485714 15.1677L1.55793 12.4897C0.553934 11.1644 0.00726364 9.54941 0 7.88721C0 3.86595 3.25671 0 8.5 0C13.7433 0 17 3.86595 17 7.88721C17 11.9085 13.7093 15.7744 8.5 15.7744C6.98821 15.7744 5.63793 15.4492 4.48314 14.8886L1.241 15.9686H1.24221Z" fill="#6B21A8"/>
</svg>
