<svg width="24" height="24" viewBox="0 0 24 24" fill="none" xmlns="http://www.w3.org/2000/svg">
<path d="M3.85004 3.15012C3.75574 3.05904 3.62944 3.00865 3.49834 3.00978C3.36724 3.01092 3.24184 3.06351 3.14913 3.15621C3.05643 3.24892 3.00384 3.37432 3.0027 3.50542C3.00157 3.63652 3.05196 3.76282 3.14304 3.85712L20.143 20.8571C20.2373 20.9482 20.3636 20.9986 20.4947 20.9975C20.6258 20.9963 20.7512 20.9437 20.844 20.851C20.9367 20.7583 20.9892 20.6329 20.9904 20.5018C20.9915 20.3707 20.9411 20.2444 20.85 20.1501L3.85004 3.15012ZM21.9 12.2001C21.477 12.8331 20.61 14.0001 19.32 15.1201L20.029 15.8281C21.399 14.6281 22.309 13.4081 22.739 12.7581C22.8887 12.5366 22.9686 12.2754 22.9686 12.0081C22.9686 11.7408 22.8887 11.4796 22.739 11.2581C21.729 9.73812 18.089 5.00812 11.939 5.00812C11.059 5.00812 10.229 5.10612 9.44904 5.27912L10.305 6.13512C10.826 6.05312 11.365 6.00812 11.935 6.00812C17.515 6.00812 20.885 10.3381 21.875 11.8181C21.9151 11.8753 21.9365 11.9434 21.9365 12.0131C21.9365 12.0829 21.9151 12.151 21.875 12.2081L21.9 12.2001Z" fill="#333333"/>
<path d="M12.2999 8.00977L16.0399 11.7498C15.98 10.7775 15.5668 9.86057 14.8779 9.17174C14.1891 8.48291 13.2722 8.06965 12.2999 8.00977ZM1.22989 11.1998C1.66189 10.5538 2.56989 9.32977 3.93989 8.12977L4.64889 8.83877C3.66313 9.6933 2.79551 10.6753 2.06889 11.7588C2.02888 11.8159 2.00741 11.884 2.00741 11.9538C2.00741 12.0235 2.02888 12.0916 2.06889 12.1488C3.05189 13.6188 6.42889 17.9588 12.0089 17.9588C12.5749 17.9588 13.1189 17.9138 13.6389 17.8318L14.4949 18.6878C13.7179 18.8598 12.8849 18.9578 12.0049 18.9578C5.89489 18.9578 2.25489 14.2278 1.20489 12.7078C1.05528 12.4863 0.975342 12.2251 0.975342 11.9578C0.975342 11.6905 1.05528 11.4293 1.20489 11.2078L1.22989 11.1998Z" fill="#333333"/>
<path d="M8.01001 12.2998C8.06989 13.2721 8.48315 14.189 9.17198 14.8778C9.86081 15.5667 10.7777 15.9799 11.75 16.0398L8.01001 12.2998Z" fill="#333333"/>
</svg>
