<svg width="21" height="13" viewBox="0 0 21 13" fill="none" xmlns="http://www.w3.org/2000/svg">
<path d="M10.4999 12C14.4999 12 17.9599 9.78 19.7399 6.5C17.9599 3.22 14.4999 1 10.4999 1C6.49989 1 3.03989 3.22 1.25989 6.5C3.03989 9.78 6.49989 12 10.4999 12ZM10.4999 0C15.0599 0 18.9999 2.65 20.8599 6.5C18.9999 10.35 15.0599 13 10.4999 13C5.93989 13 1.99989 10.35 0.139893 6.5C1.99989 2.65 5.93989 0 10.4999 0ZM10.4999 2C12.9999 2 14.9999 4 14.9999 6.5C14.9999 9 12.9999 11 10.4999 11C7.99989 11 5.99989 9 5.99989 6.5C5.99989 4 7.99989 2 10.4999 2ZM10.4999 3C9.57163 3 8.6814 3.36875 8.02502 4.02513C7.36864 4.6815 6.99989 5.57174 6.99989 6.5C6.99989 7.42826 7.36864 8.3185 8.02502 8.97487C8.6814 9.63125 9.57163 10 10.4999 10C11.4281 10 12.3184 9.63125 12.9748 8.97487C13.6311 8.3185 13.9999 7.42826 13.9999 6.5C13.9999 5.57174 13.6311 4.6815 12.9748 4.02513C12.3184 3.36875 11.4281 3 10.4999 3Z" fill="#333333"/>
</svg>
