<svg width="14" height="14" viewBox="0 0 14 14" fill="none" xmlns="http://www.w3.org/2000/svg">
<path d="M4.56668 9.43322C3.31217 8.17627 2.3474 6.66043 1.73985 4.99172C1.4056 4.07939 1.71185 3.07722 2.39902 2.39005L2.82427 1.96539C2.93859 1.85083 3.07439 1.75994 3.22388 1.69793C3.37337 1.63592 3.53363 1.604 3.69547 1.604C3.85732 1.604 4.01757 1.63592 4.16707 1.69793C4.31656 1.75994 4.45236 1.85083 4.56668 1.96539L5.56243 2.96114C5.67699 3.07546 5.76787 3.21126 5.82988 3.36075C5.89189 3.51024 5.92381 3.6705 5.92381 3.83234C5.92381 3.99419 5.89189 4.15444 5.82988 4.30394C5.76787 4.45343 5.67699 4.58923 5.56243 4.70355L5.31743 4.94855C5.21937 5.0466 5.14157 5.163 5.0885 5.29112C5.03542 5.41923 5.00811 5.55655 5.00811 5.69522C5.00811 5.83389 5.03542 5.97121 5.0885 6.09932C5.14157 6.22744 5.21937 6.34384 5.31743 6.44189L7.55743 8.68247C7.65548 8.78054 7.77188 8.85833 7.9 8.9114C8.02811 8.96448 8.16543 8.9918 8.3041 8.9918C8.44277 8.9918 8.58009 8.96448 8.7082 8.9114C8.83632 8.85833 8.95272 8.78054 9.05077 8.68247L9.29635 8.43747C9.41068 8.32291 9.54647 8.23203 9.69596 8.17002C9.84546 8.10801 10.0057 8.07609 10.1676 8.07609C10.3294 8.07609 10.4897 8.10801 10.6392 8.17002C10.7886 8.23203 10.9244 8.32291 11.0388 8.43747L12.0345 9.43322C12.1491 9.54754 12.24 9.68334 12.302 9.83283C12.364 9.98233 12.3959 10.1426 12.3959 10.3044C12.3959 10.4663 12.364 10.6265 12.302 10.776C12.24 10.9255 12.1491 11.0613 12.0345 11.1756L11.6098 11.6003C10.9227 12.2881 9.92052 12.5943 9.00818 12.2601C7.33947 11.6525 5.82363 10.6877 4.56668 9.43322Z" stroke="#B3B3B3" stroke-linejoin="round"/>
</svg>
