<svg width="17" height="16" viewBox="0 0 17 16" fill="none" xmlns="http://www.w3.org/2000/svg">
<path d="M13.6713 1.94165H12.1086V1.16028C12.1086 0.953044 12.0262 0.7543 11.8797 0.607764C11.7332 0.461229 11.5344 0.378906 11.3272 0.378906C11.12 0.378906 10.9212 0.461229 10.7747 0.607764C10.6282 0.7543 10.5458 0.953044 10.5458 1.16028V1.94165H5.85761V1.16028C5.85761 0.953044 5.77528 0.7543 5.62875 0.607764C5.48221 0.461229 5.28347 0.378906 5.07624 0.378906C4.86901 0.378906 4.67026 0.461229 4.52373 0.607764C4.37719 0.7543 4.29487 0.953044 4.29487 1.16028V1.94165H2.73213C2.11043 1.94165 1.5142 2.18861 1.07459 2.62822C0.634984 3.06783 0.388016 3.66406 0.388016 4.28576V13.6622C0.388016 14.2839 0.634984 14.8801 1.07459 15.3197C1.5142 15.7593 2.11043 16.0063 2.73213 16.0063H13.6713C14.293 16.0063 14.8892 15.7593 15.3288 15.3197C15.7685 14.8801 16.0154 14.2839 16.0154 13.6622V4.28576C16.0154 3.66406 15.7685 3.06783 15.3288 2.62822C14.8892 2.18861 14.293 1.94165 13.6713 1.94165ZM14.4527 13.6622C14.4527 13.8694 14.3704 14.0682 14.2238 14.2147C14.0773 14.3612 13.8785 14.4436 13.6713 14.4436H2.73213C2.52489 14.4436 2.32615 14.3612 2.17961 14.2147C2.03308 14.0682 1.95076 13.8694 1.95076 13.6622V8.19261H14.4527V13.6622ZM14.4527 6.62987H1.95076V4.28576C1.95076 4.07853 2.03308 3.87978 2.17961 3.73325C2.32615 3.58671 2.52489 3.50439 2.73213 3.50439H4.29487V4.28576C4.29487 4.49299 4.37719 4.69173 4.52373 4.83827C4.67026 4.98481 4.86901 5.06713 5.07624 5.06713C5.28347 5.06713 5.48221 4.98481 5.62875 4.83827C5.77528 4.69173 5.85761 4.49299 5.85761 4.28576V3.50439H10.5458V4.28576C10.5458 4.49299 10.6282 4.69173 10.7747 4.83827C10.9212 4.98481 11.12 5.06713 11.3272 5.06713C11.5344 5.06713 11.7332 4.98481 11.8797 4.83827C12.0262 4.69173 12.1086 4.49299 12.1086 4.28576V3.50439H13.6713C13.8785 3.50439 14.0773 3.58671 14.2238 3.73325C14.3704 3.87978 14.4527 4.07853 14.4527 4.28576V6.62987Z" fill="#3F51B5" fill-opacity="0.74"/>
</svg>
