<svg width="14" height="18" viewBox="0 0 14 18" fill="none" xmlns="http://www.w3.org/2000/svg">
<path d="M7.9283 6.96697C8.04433 6.61887 8.5359 6.61887 8.65193 6.96697L9.33231 9.01022C9.48207 9.45938 9.73439 9.86748 10.0693 10.2022C10.4041 10.5369 10.8124 10.789 11.2616 10.9385L13.3038 11.6189C13.6519 11.7349 13.6519 12.2265 13.3038 12.3425L11.2606 13.0229C10.8114 13.1726 10.4033 13.4249 10.0686 13.7598C9.73392 14.0947 9.48182 14.503 9.33231 14.9522L8.65193 16.9944C8.62691 17.0706 8.57846 17.137 8.51349 17.184C8.44852 17.2311 8.37034 17.2564 8.29011 17.2564C8.20989 17.2564 8.13171 17.2311 8.06674 17.184C8.00177 17.137 7.95332 17.0706 7.9283 16.9944L7.24792 14.9511C7.09827 14.5021 6.84611 14.0941 6.51142 13.7594C6.17673 13.4247 5.7687 13.1725 5.31966 13.0229L3.27641 12.3425C3.20019 12.3175 3.13381 12.269 3.08675 12.2041C3.03969 12.1391 3.01436 12.0609 3.01436 11.9807C3.01436 11.9005 3.03969 11.8223 3.08675 11.7573C3.13381 11.6923 3.20019 11.6439 3.27641 11.6189L5.31966 10.9385C5.7687 10.7888 6.17673 10.5367 6.51142 10.202C6.84611 9.86729 7.09827 9.45926 7.24792 9.01022L7.9283 6.96697ZM3.85342 1.58829C3.86854 1.54261 3.89768 1.50286 3.93669 1.47469C3.9757 1.44651 4.02259 1.43135 4.07071 1.43135C4.11883 1.43135 4.16573 1.44651 4.20474 1.47469C4.24375 1.50286 4.27289 1.54261 4.28801 1.58829L4.69624 2.81403C4.87873 3.36044 5.307 3.78871 5.85341 3.9712L7.07915 4.37943C7.12483 4.39455 7.16458 4.42369 7.19275 4.4627C7.22093 4.50171 7.2361 4.54861 7.2361 4.59673C7.2361 4.64485 7.22093 4.69174 7.19275 4.73075C7.16458 4.76976 7.12483 4.7989 7.07915 4.81403L5.85341 5.22225C5.58376 5.31174 5.33874 5.46296 5.13784 5.66385C4.93695 5.86475 4.78573 6.10978 4.69624 6.37942L4.28801 7.60516C4.27289 7.65084 4.24375 7.69059 4.20474 7.71877C4.16573 7.74694 4.11883 7.76211 4.07071 7.76211C4.02259 7.76211 3.9757 7.74694 3.93669 7.71877C3.89768 7.69059 3.86854 7.65084 3.85342 7.60516L3.44519 6.37942C3.3557 6.10978 3.20448 5.86475 3.00359 5.66385C2.80269 5.46296 2.55766 5.31174 2.28802 5.22225L1.06228 4.81403C1.0166 4.7989 0.97685 4.76976 0.948674 4.73075C0.920499 4.69174 0.905334 4.64485 0.905334 4.59673C0.905334 4.54861 0.920499 4.50171 0.948674 4.4627C0.97685 4.42369 1.0166 4.39455 1.06228 4.37943L2.28802 3.9712C2.55766 3.88171 2.80269 3.73049 3.00359 3.5296C3.20448 3.3287 3.3557 3.08368 3.44519 2.81403L3.85342 1.58829ZM11.3102 0.481757C11.3206 0.451721 11.3401 0.425677 11.366 0.407244C11.3919 0.388811 11.4229 0.378906 11.4547 0.378906C11.4865 0.378906 11.5175 0.388811 11.5434 0.407244C11.5693 0.425677 11.5888 0.451721 11.5992 0.481757L11.8713 1.29821C11.9926 1.66319 12.2785 1.94905 12.6435 2.07036L13.4599 2.34251C13.49 2.35293 13.516 2.37244 13.5344 2.39834C13.5529 2.42424 13.5628 2.45524 13.5628 2.48703C13.5628 2.51882 13.5529 2.54982 13.5344 2.57572C13.516 2.60162 13.49 2.62113 13.4599 2.63154L12.6435 2.90369C12.4638 2.96382 12.3005 3.06486 12.1665 3.19886C12.0325 3.33285 11.9315 3.49614 11.8713 3.67584L11.5992 4.4923C11.5888 4.52233 11.5693 4.54838 11.5434 4.56681C11.5175 4.58524 11.4865 4.59515 11.4547 4.59515C11.4229 4.59515 11.3919 4.58524 11.366 4.56681C11.3401 4.54838 11.3206 4.52233 11.3102 4.4923L11.038 3.67584C10.9779 3.49614 10.8768 3.33285 10.7428 3.19886C10.6088 3.06486 10.4456 2.96382 10.2658 2.90369L9.45045 2.63154C9.42041 2.62113 9.39437 2.60162 9.37594 2.57572C9.3575 2.54982 9.3476 2.51882 9.3476 2.48703C9.3476 2.45524 9.3575 2.42424 9.37594 2.39834C9.39437 2.37244 9.42041 2.35293 9.45045 2.34251L10.2669 2.07036C10.6319 1.94905 10.9177 1.66319 11.0391 1.29821L11.3102 0.481757Z" fill="#666666" fill-opacity="0.6"/>
</svg>
