<svg width="17" height="15" viewBox="0 0 17 15" fill="none" xmlns="http://www.w3.org/2000/svg">
<path d="M8.14783 4.65332C8.67525 2.57131 10.6673 1.50822 15.0044 1.48877C15.0737 1.48851 15.1424 1.50198 15.2065 1.52839C15.2706 1.5548 15.3289 1.59364 15.3779 1.64267C15.4269 1.6917 15.4657 1.74994 15.4922 1.81405C15.5186 1.87816 15.532 1.94686 15.5318 2.0162V11.5098C15.5318 11.6497 15.4762 11.7839 15.3773 11.8828C15.2784 11.9817 15.1442 12.0373 15.0044 12.0373C10.785 12.0373 9.15488 12.8881 8.14783 14.147M8.14783 4.65332C7.6204 2.57131 5.62839 1.50822 1.29131 1.48877C1.22197 1.48851 1.15327 1.50198 1.08916 1.52839C1.02505 1.5548 0.966806 1.59364 0.917778 1.64267C0.86875 1.6917 0.82991 1.74994 0.803497 1.81405C0.777084 1.87816 0.76362 1.94686 0.763882 2.0162V11.4462C0.763882 11.7719 0.965622 12.0373 1.29131 12.0373C5.51071 12.0373 7.14671 12.8943 8.14783 14.147M8.14783 4.65332V14.147" stroke="#333333" stroke-opacity="0.7" stroke-linecap="round" stroke-linejoin="round"/>
</svg>
