<svg width="17" height="17" viewBox="0 0 17 17" fill="none" xmlns="http://www.w3.org/2000/svg">
<path d="M10.8499 15.9122V9.66125C10.8499 9.45402 10.7676 9.25528 10.621 9.10874C10.4745 8.96221 10.2758 8.87988 10.0685 8.87988H6.94305C6.73582 8.87988 6.53708 8.96221 6.39054 9.10874C6.244 9.25528 6.16168 9.45402 6.16168 9.66125V15.9122" stroke="white" stroke-opacity="0.62" stroke-width="2" stroke-linecap="round" stroke-linejoin="round"/>
<path d="M1.47347 7.31696C1.47341 7.08964 1.52295 6.86504 1.61863 6.65883C1.71432 6.45262 1.85383 6.26977 2.02746 6.12303L7.49705 1.43559C7.77911 1.1972 8.13649 1.06641 8.5058 1.06641C8.87511 1.06641 9.23248 1.1972 9.51455 1.43559L14.9841 6.12303C15.1578 6.26977 15.2973 6.45262 15.393 6.65883C15.4886 6.86504 15.5382 7.08964 15.5381 7.31696V14.3493C15.5381 14.7638 15.3735 15.1612 15.0804 15.4543C14.7873 15.7474 14.3899 15.912 13.9754 15.912H3.03621C2.62174 15.912 2.22425 15.7474 1.93118 15.4543C1.63811 15.1612 1.47347 14.7638 1.47347 14.3493V7.31696Z" stroke="white" stroke-opacity="0.62" stroke-width="2" stroke-linecap="round" stroke-linejoin="round"/>
</svg>
