<svg width="20" height="22" viewBox="0 0 20 22" fill="none" xmlns="http://www.w3.org/2000/svg">
<path d="M1.01025 2.62061C0.896798 1.7424 1.7717 1.03727 2.60498 1.3335L2.78271 1.4126L18.3579 9.79346V9.82666L18.6177 9.96924C18.809 10.0738 18.9693 10.228 19.0806 10.4155C19.1916 10.6029 19.2504 10.8168 19.2505 11.0347C19.2505 11.2527 19.1918 11.4672 19.0806 11.6548C18.9693 11.8424 18.8091 11.9965 18.6177 12.1011L2.78271 20.6226C1.84323 21.1294 0.753523 20.2511 1.05029 19.2241V19.2222L3.22119 11.6274L3.22217 11.6235C3.33384 11.2213 3.3338 10.8139 3.22217 10.4116L3.22119 10.4077L1.05029 2.81299V2.81104L1.01025 2.62061Z" fill="#F5EAF6" stroke="#AD81CD"/>
</svg>
