<svg width="16" height="16" viewBox="0 0 16 16" fill="none" xmlns="http://www.w3.org/2000/svg">
<path d="M0.99765 9.08896H4.34211C4.68133 9.08896 4.88469 8.93821 4.95219 8.63671L6.08233 3.44628L8.06426 15.3417C8.15458 15.884 8.99093 15.8766 9.09636 15.3417L11.0175 6.33914L11.4618 8.57628C11.5296 8.92343 11.7253 9.08896 12.0795 9.08896H15.0026C15.3041 9.08896 15.5452 8.85528 15.5452 8.56182C15.5452 8.26032 15.3115 8.02664 15.0026 8.02664H12.3357L11.4695 4.192C11.3563 3.67225 10.5804 3.67225 10.4525 4.2145L8.56151 12.6597L6.58793 0.658855C6.50501 0.131712 5.72876 0.116605 5.60822 0.658855L4.01104 8.02664H0.99765C0.69615 8.02664 0.455078 8.26771 0.455078 8.5615C0.455078 8.85528 0.69615 9.08896 0.99765 9.08896Z" fill="#DB4193"/>
</svg>
