<svg width="23" height="23" viewBox="0 0 23 23" fill="none" xmlns="http://www.w3.org/2000/svg">
<path d="M20.2749 0.700195C20.454 0.700195 20.6257 0.771311 20.7522 0.897898C20.8788 1.02449 20.9499 1.19617 20.9499 1.3752V2.0502H21.6249C21.804 2.0502 21.9757 2.12131 22.1022 2.2479C22.2288 2.37449 22.2999 2.54617 22.2999 2.7252C22.2999 2.90422 22.2288 3.07591 22.1022 3.20249C21.9757 3.32908 21.804 3.4002 21.6249 3.4002H20.9499V4.0752C20.9499 4.25422 20.8788 4.4259 20.7522 4.55249C20.6257 4.67908 20.454 4.7502 20.2749 4.7502C20.0959 4.7502 19.9242 4.67908 19.7977 4.55249C19.6711 4.4259 19.5999 4.25422 19.5999 4.0752V3.4002H18.9249C18.7459 3.4002 18.5742 3.32908 18.4477 3.20249C18.3211 3.07591 18.2499 2.90422 18.2499 2.7252C18.2499 2.54617 18.3211 2.37449 18.4477 2.2479C18.5742 2.12131 18.7459 2.0502 18.9249 2.0502H19.5999V1.3752C19.5999 1.19617 19.6711 1.02449 19.7977 0.897898C19.9242 0.771311 20.0959 0.700195 20.2749 0.700195ZM6.77495 6.10019C6.95397 6.10019 7.12566 6.02908 7.25225 5.90249C7.37883 5.7759 7.44995 5.60422 7.44995 5.42519C7.44995 5.24617 7.37883 5.07449 7.25225 4.9479C7.12566 4.82131 6.95397 4.7502 6.77495 4.7502H6.09995V4.0752C6.09995 3.89617 6.02883 3.72449 5.90225 3.5979C5.77566 3.47131 5.60397 3.4002 5.42495 3.4002C5.24593 3.4002 5.07424 3.47131 4.94765 3.5979C4.82107 3.72449 4.74995 3.89617 4.74995 4.0752V4.7502H4.07495C3.89593 4.7502 3.72424 4.82131 3.59765 4.9479C3.47107 5.07449 3.39995 5.24617 3.39995 5.42519C3.39995 5.60422 3.47107 5.7759 3.59765 5.90249C3.72424 6.02908 3.89593 6.10019 4.07495 6.10019H4.74995V6.7752C4.74995 6.95422 4.82107 7.1259 4.94765 7.25249C5.07424 7.37908 5.24593 7.45019 5.42495 7.45019C5.60397 7.45019 5.77566 7.37908 5.90225 7.25249C6.02883 7.1259 6.09995 6.95422 6.09995 6.7752V6.10019H6.77495ZM18.9249 18.2502C19.104 18.2502 19.2757 18.1791 19.4022 18.0525C19.5288 17.9259 19.5999 17.7542 19.5999 17.5752C19.5999 17.3962 19.5288 17.2245 19.4022 17.0979C19.2757 16.9713 19.104 16.9002 18.9249 16.9002H18.2499V16.2252C18.2499 16.0462 18.1788 15.8745 18.0522 15.7479C17.9257 15.6213 17.754 15.5502 17.5749 15.5502C17.3959 15.5502 17.2242 15.6213 17.0977 15.7479C16.9711 15.8745 16.9 16.0462 16.9 16.2252V16.9002H16.2249C16.0459 16.9002 15.8742 16.9713 15.7477 17.0979C15.6211 17.2245 15.5499 17.3962 15.5499 17.5752C15.5499 17.7542 15.6211 17.9259 15.7477 18.0525C15.8742 18.1791 16.0459 18.2502 16.2249 18.2502H16.9V18.9252C16.9 19.1042 16.9711 19.2759 17.0977 19.4025C17.2242 19.5291 17.3959 19.6002 17.5749 19.6002C17.754 19.6002 17.9257 19.5291 18.0522 19.4025C18.1788 19.2759 18.2499 19.1042 18.2499 18.9252V18.2502H18.9249ZM16.1358 6.8643C15.8959 6.62432 15.611 6.43396 15.2975 6.30408C14.984 6.1742 14.648 6.10736 14.3086 6.10736C13.9693 6.10736 13.6332 6.1742 13.3197 6.30408C13.0062 6.43396 12.7213 6.62432 12.4814 6.8643L1.4573 17.8884C1.21735 18.1283 1.027 18.4132 0.897141 18.7267C0.767279 19.0402 0.700439 19.3763 0.700439 19.7156C0.700439 20.055 0.767279 20.391 0.897141 20.7045C1.027 21.018 1.21735 21.3029 1.4573 21.5428C1.69726 21.7828 1.98212 21.9731 2.29564 22.103C2.60915 22.2329 2.94518 22.2997 3.28453 22.2997C3.62387 22.2997 3.9599 22.2329 4.27341 22.103C4.58693 21.9731 4.8718 21.7828 5.11175 21.5428L16.1358 10.5187C16.3758 10.2788 16.5662 9.99394 16.6961 9.68042C16.8259 9.3669 16.8928 9.03087 16.8928 8.69152C16.8928 8.35217 16.8259 8.01614 16.6961 7.70262C16.5662 7.3891 16.3758 7.10424 16.1358 6.8643ZM13.4358 7.81874C13.6673 7.58727 13.9813 7.45723 14.3086 7.45723C14.636 7.45723 14.9499 7.58727 15.1814 7.81875C15.4129 8.05022 15.5429 8.36417 15.5429 8.69152C15.5429 9.01887 15.4129 9.33282 15.1814 9.56429L14.5374 10.2082L12.7919 8.46269L13.4358 7.81874ZM11.8374 9.41714L13.583 11.1627L4.1573 20.5884C3.92507 20.8153 3.61274 20.9416 3.28803 20.9398C2.96332 20.938 2.65241 20.8083 2.42272 20.5788C2.19302 20.3492 2.06306 20.0384 2.061 19.7137C2.05895 19.389 2.18498 19.0766 2.41175 18.8442L11.8374 9.41714Z" fill="#B567FA"/>
</svg>
