<svg width="360" height="360" viewBox="0 0 360 360" fill="none" xmlns="http://www.w3.org/2000/svg">
<g clip-path="url(#clip0_366_20208)">
<path d="M246.4 99.6001C254.2 83.5001 269.9 80.0001 284.8 78.0001C299.1 76.1001 313.1 96.4001 309.9 112.7C306.7 128.5 296.9 142.7 293.7 157.5C290.6 171.6 302.4 187.4 301.2 204.2C298.9 236.3 279.6 256.1 253.8 269.9C236.1 279.4 217.3 287.5 196.9 290.9C151.4 298.5 89.0001 271 66.0001 230.9C54.6001 211.1 56.2001 189.3 64.2001 168.8C67.6001 160 67.0001 154.1 61.8001 147.1C52.9001 135 49.7001 120.8 49.8001 106.2C50.0001 84.5001 66.2001 73.2001 86.8001 80.0001C97.6001 83.6001 110.3 85.5001 114 99.5001C107.1 100 100.2 100.4 93.3001 100.9C84.3001 97.7001 74.4001 94.8001 70.0001 106.3C65.7001 117.4 67.2001 130.7 76.8001 137.3C84.3001 142.4 87.7001 128.6 94.6001 125.7C96.1001 127.1 97.9001 128.4 99.1001 130.1C114.1 151.5 116.8 151.7 130.8 130.1C136 122.1 141.9 117.7 151.7 118.7C160 119.5 167.9 118.5 172.4 109.9C177.4 106.6 183 106.4 188.7 106.8C191.9 116.8 199.7 118.9 208.8 118.2C219.5 117.3 226.1 121.9 231.8 131.1C244.2 151 248 150.7 261.1 130.9C262.3 129.2 263.9 127.7 265.3 126.1C269.2 129.7 273.3 133.1 277 136.9C280.5 140.5 283.3 140.5 285.8 136.2C291.6 126.1 295.4 115 289.4 104.3C283.5 93.9001 273.9 98.3001 265.3 101.4C258.8 100.8 252.6 100.2 246.4 99.6001ZM173.5 256.1C170.9 247.2 176.5 258.4 171.4 259.3C165.2 260.4 171.6 261.6 171.6 247.6C174.8 247.4 178 247.2 181.1 247.1C186.7 246.9 192.1 246.2 194.2 240C195.9 235 194.3 230.4 190.8 226.7C186.2 221.8 180.3 221.3 174.5 223.4C164.6 227 164.6 235.7 172.7 246.9C171.3 254.7 194.8 257.8 174.6 254.6M111 251.3C112.3 250.9 115 250.5 117.3 249.2C137.7 237.4 153.2 220.1 165 200.4C171.7 189.2 167.7 176 160.3 165.5C155.1 158.1 147.2 154.7 137.7 156.6C115.4 161 83.9001 195.9 82.0001 218.3C80.5001 235.5 94.0001 251.8 111 251.3ZM193.2 185.5C192.9 196.1 194.4 202.9 199.3 208.3C209.4 219.4 219.4 230.5 230.2 240.9C240.1 250.5 251.4 255.7 264.7 246.2C277.8 236.8 281.2 224.3 276.2 209.4C269.6 189.7 255.5 176 238.7 164.7C229.2 158.3 219.7 152.1 207.7 158.6C195.6 165.2 193.8 176.8 193.2 185.5Z" fill="#F8F8F8"/>
<path d="M93.1003 100.8C100 100.3 106.9 99.9001 113.8 99.4001C126.1 101.5 128 90.5001 132.9 83.7001C144.4 67.8001 151.9 67.9001 161.7 85.0001C166.1 92.8001 171.6 100.2 172.2 109.6C167.7 118.2 159.8 119.2 151.5 118.4C141.7 117.4 135.8 121.8 130.6 129.8C116.6 151.4 114 151.2 98.9003 129.8C97.7003 128.1 95.9003 126.9 94.4003 125.4C92.7003 117.4 89.1003 109.3 93.1003 100.8Z" fill="#F16483"/>
<path d="M265 126C263.6 127.6 262 129 260.8 130.8C247.7 150.6 244 150.9 231.5 131C225.8 121.9 219.2 117.3 208.5 118.1C199.5 118.8 191.6 116.6 188.4 106.7C192.9 98.3001 196.8 89.7001 201.9 81.7001C209.3 70.2001 216.8 70.5001 225.5 81.1001C231.4 88.3001 232.5 101.2 246.2 99.8001C252.4 100.4 258.6 100.9 264.9 101.5C272.7 109.5 265.1 117.7 265 126Z" fill="#F16483"/>
<path d="M111 251.3C94.0002 251.8 80.5002 235.5 82.0002 218.2C83.9002 195.8 115.4 161 137.7 156.5C147.2 154.6 155.1 158 160.3 165.4C167.7 176 171.7 189.1 165 200.3C153.1 220.1 137.7 237.3 117.3 249.1C115 250.5 112.2 250.9 111 251.3ZM149.9 191.2C149.6 185.1 146.8 178.7 138.5 178.1C129.8 177.5 126.3 184 125.9 191.5C125.5 199.7 128.5 207 137.9 207C146.2 207 149.6 200.7 149.9 191.2Z" fill="#090909"/>
<path d="M193.2 185.5C193.8 176.8 195.5 165.2 207.7 158.6C219.7 152.1 229.2 158.3 238.7 164.7C255.5 176 269.5 189.6 276.2 209.4C281.2 224.3 277.8 236.8 264.7 246.2C251.5 255.7 240.2 250.5 230.2 240.9C219.4 230.5 209.4 219.3 199.3 208.3C194.4 202.9 192.9 196.1 193.2 185.5ZM233.9 191.1C233.5 184.1 230.2 177.9 221.7 178.1C213.2 178.2 209.7 184.7 209.8 192.4C209.9 200.7 213.2 207.6 222.9 206.9C231.7 206.3 233.9 199.6 233.9 191.1Z" fill="#090909"/>
<path d="M265 126C265 117.8 272.6 109.6 265 101.4C273.6 98.3 283.2 93.8 289.1 104.3C295.1 115 291.3 126.1 285.5 136.2C283 140.5 280.2 140.5 276.7 136.9C273 133 268.9 129.5 265 126Z" fill="#161616"/>
<path d="M93.1002 100.8C89.1002 109.3 92.7002 117.4 94.4002 125.5C87.5002 128.5 84.1002 142.2 76.6002 137.1C67.0002 130.6 65.5002 117.2 69.8002 106.1C74.2002 94.7 84.1002 97.6 93.1002 100.8Z" fill="#090909"/>
<path d="M170.8 246.6C166.4 240.7 160.2 227.5 174.5 223.4C180.3 221.3 186.2 221.8 190.8 226.7C194.3 230.5 195.9 235 194.2 240C192.1 246.2 188.2 248.4 182.6 248.6C179.4 248.7 177.9 248.5 177.9 248.5C177.9 248.5 175.5 248.8 170.8 246.6Z" fill="#161616"/>
<path d="M149.9 191.2C149.6 200.7 146.3 207 138 207C128.6 207 125.5 199.7 126 191.5C126.4 184 129.9 177.5 138.6 178.1C146.8 178.7 149.6 185.1 149.9 191.2Z" fill="#E5E5E5"/>
<path d="M233.9 191.1C233.9 199.7 231.7 206.3 223 206.9C213.3 207.5 209.9 200.6 209.9 192.4C209.8 184.7 213.3 178.3 221.8 178.1C230.2 177.9 233.5 184.1 233.9 191.1Z" fill="#E5E5E5"/>
<path d="M181.9 270.7C173.9 270.4 165.9 269.7 159.2 264.5C156.8 262.7 153.2 260.8 155.5 257C157.1 254.3 160.2 251.8 163.5 253.8C175.6 261.3 187.6 261.4 199.8 254.2C203.3 252.1 206.2 254 208 256.7C210.6 260.5 207 262.5 204.7 264.3C198 269.3 190.1 270.8 181.9 270.7Z" fill="#161616"/>
</g>
<defs>
<clipPath id="clip0_366_20208">
<rect width="360" height="360" fill="white"/>
</clipPath>
</defs>
</svg>
