<svg width="360" height="360" viewBox="0 0 360 360" fill="none" xmlns="http://www.w3.org/2000/svg">
<g clip-path="url(#clip0_366_15522)">
<path d="M259.2 94.8C261.8 96.7 264.8 98.2 266.9 100.5C280.5 115.5 292.7 130.6 311.2 142C339.1 159.2 332.3 206.3 302.4 221.3C295.8 224.6 291.5 228.1 288.5 235.1C269.6 279.6 234.3 302.4 187.3 305C135.3 307.9 95.8 285.9 73 237.9C69.1 229.6 64.5 224.7 56.4 220.4C25.3 203.8 22.1 156 52.7 139C68.5 130.2 79.2 119.1 88.8 105.1C90.3 102.9 92.7 101.4 94.6 99.6C99.3 107.3 105 114.6 104.5 124.4C71.9 157.6 74.2 201.4 110.7 228.7C117.3 233.6 118.4 239.6 120.4 246.2C128.6 273.6 152.3 291.8 179.8 292.2C207.4 292.5 231.6 274.8 239.5 247.1C242.1 237.8 246.7 231.7 254.3 225.7C288.1 199.4 286.8 145.8 252.5 123.4C249 112.4 260.9 105.2 259.2 94.8Z" fill="#090909"/>
<path d="M154.6 113.2C142.6 129.8 134 132.5 115.3 125.7C112 124.5 108.1 124.8 104.4 124.4C104.9 114.6 99.3 107.3 94.5 99.6C101.4 87.6 104.5 72.2 121.9 69.9C165.3 76.9 145.4 63.1 172 54.8C184 52.6 195 57.4 202 67.4C205.4 72.2 209.3 75.1 213.7 73C238.5 60.7 248.6 77.9 259 94.8C260.7 105.3 248.8 112.5 252.2 123.3C247.1 124.7 241.7 125.5 236.9 127.6C224.1 133.2 207.8 127.6 200.4 114.4C194.4 115.5 190.6 116.2 190.6 116.2M136.6 100.2C136.7 95 134.3 92.2 129.1 91.9C123.4 91.6 119.5 94.4 119.2 99.8C118.9 105.2 122.6 109 128 109.2C133.6 109.4 136.6 105.8 136.6 100.2ZM186.8 85.6C185.9 80.3 182.5 76.9 177.2 76.9C172.5 76.9 169.2 79.8 169 85C168.8 91.3 173 93.7 178.2 93.8C182.8 93.8 186 90.7 186.8 85.6ZM226.9 92C220.8 92.1 218.6 96.2 218.8 101.3C219 106.3 222.7 108.5 227.4 108.4C232.3 108.3 235.5 105.4 235.7 100.7C235.9 95.2 232.7 92.1 226.9 92Z" fill="#F16483"/>
<path d="M200.7 113.2C214.9 129.8 224.5 133.3 237.2 127.6C242 125.5 247.4 124.7 252.5 123.3C286.8 145.8 288 199.3 254.3 225.6C246.7 231.6 242.1 237.7 239.5 247C231.6 274.7 207.5 292.4 179.8 292.1C152.3 291.8 128.6 273.5 120.4 246.1C118.4 239.6 117.3 233.6 110.7 228.6C74.1999 201.3 71.8999 157.5 104.5 124.3C108.1 124.7 112 124.4 115.4 125.6C134 132.4 143.7 128.2 154.7 113.1C165.7 98 186.5 96.5 200.7 113.2ZM178.2 207.9C195 207.9 211.4 209.6 225 221C228.9 224.3 232.4 225.5 235.7 220.7C239 215.9 234.3 214.1 231.8 211.9C209.5 191.9 151.9 191.8 129.1 211.8C126.4 214.1 120.2 215.8 125.3 221.5C129.4 226.1 132.5 223.6 136.1 220.7C148.3 210.7 162.8 207.9 178.2 207.9ZM180.3 266.8C188.5 266.9 196.2 265.3 202.9 260.5C205.4 258.8 208.7 256.9 206.1 253C204.2 250.1 201.2 248.7 197.9 250.7C185.8 258.2 173.9 257.7 161.9 250.3C158.6 248.3 155.8 250.5 153.9 253.3C151.3 257.4 155.2 258.8 157.5 260.4C164.5 265.4 172.2 266.9 180.3 266.8ZM145.6 172.4C145 164.3 142 157.6 133.6 157.5C124.4 157.3 120.5 164.1 120.8 172.7C121.1 180.4 124.7 186.5 133.4 186.3C142.2 186.1 145 179.8 145.6 172.4ZM239.6 172.1C238.7 164.4 235.6 157.7 227.5 157.6C218.4 157.5 214.5 164.9 214.9 173C215.2 180.2 218.8 186.7 227.7 186.3C236.5 185.9 238.9 179.5 239.6 172.1Z" fill="#F8F8F8"/>
<path d="M136.6 100.2C136.5 105.8 133.5 109.5 128 109.3C122.6 109.1 118.9 105.3 119.2 99.9C119.5 94.5 123.4 91.6 129.1 92C134.3 92.2 136.7 95 136.6 100.2Z" fill="#E5E4E3"/>
<path d="M186.8 85.6C185.9 90.7 182.8 93.8 178.2 93.8C173.1 93.8 168.8 91.3 169 85C169.2 79.8 172.4 76.9 177.2 76.9C182.5 76.9 185.9 80.3 186.8 85.6Z" fill="#E5E4E3"/>
<path d="M226.9 92C232.6 92.1 235.9 95.3 235.7 100.8C235.5 105.5 232.3 108.4 227.4 108.5C222.6 108.6 218.9 106.3 218.8 101.4C218.6 96.2 220.8 92.1 226.9 92Z" fill="#E5E4E3"/>
<path d="M178.2 207.9C162.8 207.9 148.3 210.7 136.1 220.7C132.5 223.6 129.4 226.1 125.3 221.5C120.2 215.8 126.4 214.1 129.1 211.8C151.9 191.8 209.5 191.9 231.8 211.9C234.3 214.2 239.1 215.9 235.7 220.7C232.4 225.5 228.9 224.2 225 221C211.4 209.6 195 207.9 178.2 207.9Z" fill="#161616"/>
<path d="M180.3 266.8C172.2 266.9 164.4 265.4 157.7 260.6C155.4 259 151.5 257.6 154.1 253.5C155.9 250.6 158.8 248.5 162.1 250.5C174.1 257.8 186 258.3 198.1 250.9C201.4 248.9 204.4 250.3 206.3 253.2C208.9 257 205.5 258.9 203.1 260.7C196.2 265.3 188.5 266.9 180.3 266.8Z" fill="#161616"/>
<path d="M145.6 172.4C145 179.8 142.2 186.1 133.5 186.3C124.8 186.5 121.2 180.4 120.9 172.7C120.6 164.1 124.5 157.3 133.7 157.5C142 157.6 145 164.4 145.6 172.4Z" fill="#161616"/>
<path d="M239.6 172.1C238.9 179.6 236.4 185.9 227.6 186.3C218.7 186.7 215.1 180.2 214.8 173C214.5 165 218.3 157.6 227.4 157.6C235.7 157.7 238.8 164.4 239.6 172.1Z" fill="#161616"/>
</g>
<defs>
<clipPath id="clip0_366_15522">
<rect width="360" height="360" fill="white"/>
</clipPath>
</defs>
</svg>
