<svg width="360" height="360" viewBox="0 0 360 360" fill="none" xmlns="http://www.w3.org/2000/svg">
<g clip-path="url(#clip0_366_22559)">
<path d="M135.6 74.1C148.8 68.3 161.8 64.9 174.8 74.9C178.5 77.8 183 77.9 186.8 75C198.8 66.1 211.8 67.6 225 70.9C229.9 78.8 231.4 91.6 241.8 92.5C252.3 93.5 260.9 96.7 269.7 101.4C270.2 102.9 270.3 104.7 271.3 105.8C280.4 116.3 271.2 129.9 275.6 139C279.9 147.8 297.1 151 297.1 162.9C297 186.2 295.2 210 290.7 232.5C288.3 244.5 274.8 254.6 273 269.7C272.1 276.9 264.6 285 258.2 285.3C243.2 285.9 235.5 293.5 227 304.6C218.3 316 204 316.2 191.9 309C184 304.2 178.9 303.2 170.6 308.7C156.8 317.8 140.6 314.5 130.8 300.6C125.3 292.8 118.7 288.6 110.1 287.5C93.7999 285.4 86.9999 274.9 86.0999 260.1C85.5999 252.3 83.4999 247.4 76.6999 243.1C68.9999 238.3 63.0999 228.4 66.9999 221C79.5999 197.5 47.1999 170.5 73.5999 149.2C81.7999 142.6 88.0999 136.9 83.8999 124C81.8999 117.7 87.5999 108.9 89.7999 101.2C104.8 91.6 128.5 96.9 135.6 74.1ZM122.3 144.8C118.5 144.8 114.8 144.8 111 144.8C88.1999 144.9 82.5999 150.5 82.3999 173.2C82.3999 178 82.2999 182.9 82.4999 187.7C82.9999 200.5 90.4999 207.3 102.4 209.1C136.8 214.5 146.8 209.5 157.8 176.6C163.2 160.4 174.6 165.6 184.8 164.5C194.3 163.6 200 165.6 203.4 176.7C207.9 191.3 211.3 209.4 233.1 209.3C240.6 209.3 248.1 209.4 255.6 209.2C267.9 209 276 202.9 278.7 190.9C283.3 170.7 279 149.5 267.8 147.2C248.2 143.3 227.3 139.9 208.3 149.4C191.7 157.7 173.2 157.7 158.8 152C146.3 147.1 134.9 145.2 122.3 144.8ZM162.4 225.5C156.9 223.3 150.3 222.3 149.5 229.3C148.6 237 158 238.3 162.2 237.7C175.3 235.8 188.3 237 201.3 236.5C205.3 236.4 212.4 235.7 211.1 229.1C209.8 222.7 204.2 224.6 199.3 225.6C194.7 226.5 189.1 227.5 186.9 221.5C185.2 216.9 185.8 212.2 189.7 208.2C193 204.8 200.5 200.5 192.6 196C185.2 191.8 175.4 191.7 168.1 196.4C161.8 200.5 168 204.8 171.2 207.7C175.4 211.5 176.6 215.8 174.8 220.6C172.5 226.4 167.1 225.6 162.4 225.5Z" fill="#FCFCFB"/>
<path d="M135.6 74.1C128.5 96.9 104.7 91.7 89.8 101.3C90.2 86.8 92.5 72.6 96.2 58.6C97.8 52.6 100.7 47.7 107.8 47C114.2 46.4 119.4 48 122.9 53.7C127.2 60.5 131.4 67.3 135.6 74.1Z" fill="#090909"/>
<path d="M269.7 101.4C261 96.7 252.3 93.4 241.8 92.5C231.4 91.5 229.9 78.8 225 70.9C229 65.4 233.2 60 237 54.3C241 48.2 246.4 46.1 253.3 47C260.3 48 262.9 53.1 264.3 59C267.7 73 271.6 86.8 269.7 101.4Z" fill="#090909"/>
<path d="M122.3 144.8C134.9 145.2 146.3 147.1 158.8 152.1C173.2 157.9 191.7 157.9 208.3 149.5C227.3 139.9 248.2 143.4 267.8 147.3C279 149.5 283.3 170.8 278.7 191C276 203 267.8 209.1 255.6 209.3C248.1 209.4 240.6 209.3 233.1 209.4C211.3 209.5 207.9 191.4 203.4 176.8C200 165.7 194.3 163.7 184.8 164.6C174.5 165.6 163.2 160.4 157.8 176.7C146.8 209.6 136.8 214.5 102.4 209.2C90.5 207.3 83 200.6 82.5 187.8C82.3 183 82.4 178.1 82.4 173.3C82.6 150.6 88.2 145 111 144.9C114.8 144.8 118.5 144.8 122.3 144.8ZM239.7 163.6C242.3 163.9 245 164.4 247.6 164.3C253.4 164.1 259.4 165.7 264.8 162.7C265.4 162.4 265.4 159.4 264.7 158.5C259.2 152.4 251.9 155.2 245.2 155C242.3 154.9 240.4 156.8 239 159.3C233.1 152.4 226 153.3 218.8 156.5C217.5 157.1 216.3 161.2 217 161.9C222.2 167.3 228.9 163.9 235 164.4C236.5 164.6 238.1 163.9 239.7 163.6ZM121.7 163.6C123.3 163.9 124.8 164.4 126.4 164.4C132.1 164.4 138 166.2 143.2 162.8C144 162.3 143.9 158.3 142.8 157.3C137.6 152.2 131.1 154.7 125 155.3C124.5 155.4 124 155.7 123.5 155.9C113.1 155 102.1 150.6 92.2 162.6C103.3 165.8 112.5 164.7 121.7 163.6ZM117.6 190.2C110 193 95.5 186.6 95.6 194.5C95.7 203.7 109.8 199.2 117.6 199.2C124.6 199.2 137 203.9 137.3 193.7C137.5 187.3 124.5 192.6 117.6 190.2ZM215.5 175.4C215.5 184 220.5 183.1 224.6 183.1C234.8 183.3 245 183.4 255.2 183.1C260 182.9 268.1 185.2 267.9 177.7C267.7 171.4 260 175.2 255.9 173.8C241.8 169.1 229.9 186.7 215.5 175.4ZM145.5 175.6C137.6 180.9 130.7 179.1 122.6 175.5C115.8 172.5 106.9 174.2 98.9 174.1C96.2 174 93.2 174.8 93.1 178.2C92.9 182.6 96.5 183.1 99.7 183.2C113.1 183.2 126.4 183.3 139.8 182.9C142.8 182.8 146.3 181.6 145.5 175.6ZM265 193.9C250.7 190.7 236.7 189.6 222.8 194.1C237 201.3 251.2 201.2 265 193.9Z" fill="#9C79E2"/>
<path d="M162.4 225.5C167.1 225.6 172.5 226.4 174.7 220.8C176.6 216 175.3 211.7 171.1 207.9C167.9 205 161.7 200.6 168 196.6C175.3 191.8 185.1 192 192.5 196.2C200.5 200.7 192.9 205 189.6 208.4C185.7 212.4 185.2 217.1 186.8 221.7C188.9 227.6 194.6 226.7 199.2 225.8C204.1 224.8 209.8 222.9 211 229.3C212.3 235.9 205.2 236.5 201.2 236.7C188.2 237.2 175.2 236 162.1 237.9C157.9 238.5 148.6 237.3 149.4 229.5C150.3 222.3 156.9 223.3 162.4 225.5Z" fill="#161616"/>
<path d="M117.6 190.2C124.5 192.6 137.5 187.3 137.3 193.7C137 203.9 124.6 199.2 117.6 199.2C109.8 199.2 95.7001 203.7 95.6001 194.5C95.5001 186.6 110 193 117.6 190.2Z" fill="#E3E3E3"/>
<path d="M215.5 175.4C229.9 186.7 241.8 169.1 255.8 173.8C259.9 175.2 267.6 171.4 267.8 177.7C268 185.2 260 182.9 255.1 183.1C244.9 183.5 234.7 183.3 224.5 183.1C220.5 183.1 215.5 184.1 215.5 175.4Z" fill="#E3E3E3"/>
<path d="M145.5 175.6C146.3 181.6 142.8 182.8 139.8 182.8C126.4 183.1 113.1 183.1 99.7 183.1C96.5 183.1 92.9 182.5 93.1 178.1C93.2 174.7 96.2 174 98.9 174C106.9 174.2 115.8 172.4 122.6 175.4C130.7 179.1 137.6 180.9 145.5 175.6Z" fill="#E3E3E3"/>
<path d="M265 193.9C251.2 201.2 237 201.3 222.8 194.1C236.7 189.6 250.7 190.7 265 193.9Z" fill="#E3E3E3"/>
<path d="M121.7 163.6C112.5 164.7 103.3 165.8 92.2 162.6C102.1 150.7 113.2 155 123.5 155.9C123 158.5 122.4 161.1 121.7 163.6Z" fill="#E5E5E5"/>
<path d="M239 159.3C240.4 156.9 242.3 154.9 245.2 155C251.9 155.2 259.2 152.4 264.7 158.5C265.4 159.3 265.4 162.3 264.8 162.7C259.4 165.7 253.4 164.1 247.6 164.3C245 164.4 242.3 163.9 239.7 163.6C239.4 162.2 239.2 160.8 239 159.3Z" fill="#F8F8F8"/>
<path d="M239 159.3C239.2 160.7 239.5 162.2 239.7 163.6C238.1 163.9 236.5 164.6 235 164.4C228.9 163.9 222.2 167.3 217 161.9C216.3 161.2 217.6 157.1 218.8 156.5C225.9 153.3 233.1 152.5 239 159.3Z" fill="#161616"/>
<path d="M121.7 163.6C122.3 161 123 158.5 123.6 155.9C124.1 155.7 124.6 155.4 125.1 155.3C131.2 154.7 137.6 152.2 142.9 157.3C143.9 158.3 144.1 162.3 143.3 162.8C138.1 166.1 132.2 164.4 126.5 164.4C124.8 164.5 123.3 163.9 121.7 163.6Z" fill="#161616"/>
</g>
<defs>
<clipPath id="clip0_366_22559">
<rect width="360" height="360" fill="white"/>
</clipPath>
</defs>
</svg>
