<?xml version="1.0" encoding="UTF-8"?>
<svg id="Layer_1" data-name="Layer 1" xmlns="http://www.w3.org/2000/svg" viewBox="0 0 360 360">
  <defs>
    <style>
      .cls-1 {
        fill: #fa5c7e;
      }

      .cls-2 {
        fill: #fbfcfc;
      }

      .cls-3 {
        fill: #060606;
      }
    </style>
  </defs>
  <path class="cls-2" d="M252.95,87.02c18.04-12.83,38.69-19.38,60-23.46,16.46-3.15,32.89,10.35,32.24,27.18-1.13,29.27-7.4,57.66-24.15,82.33-10.34,15.23-26.09,23.05-44.22,25.27-5.15,.63-6.84,1.69-6.98,7.21-1.32,52.79-39.52,83.46-83.35,91.3-13.48,2.41-26.4-2.25-38.61-7.8-34.9-15.86-54.85-42.43-56.61-81.33-.31-6.81-2.42-8.55-9.26-9.67-27.86-4.58-45.41-21.77-54.58-48.04-6.22-17.83-10.17-36.21-12.46-54.9-2.24-18.28,15.6-35.16,33.9-31.46,21.03,4.25,41.31,11.05,59.3,23.34-9.13-.91-15.54,2.56-18.54,11.52-9.03-4.09-18.24-7.68-27.97-9.72-13.54-2.84-25.75,6.58-24.6,19.82,1.39,15.9,4.7,31.56,12.18,45.84,7.96,15.18,21.26,22.38,38.12,23.19,2.42,.12,6.14,.41,6.42-2.87,.21-2.5-3.26-2.57-5.35-3.31-7.79-2.79-15.57-5.59-25.48-9.15,9.14-2.58,15.76-4.45,22.79-6.43-3.57-6.06-6.72-11.43-10.54-17.93,7.59,2.26,13.52,4.03,19.45,5.8,1.42,.56,2.8,1.38,4.28,1.64,5.59,.96,10.56,1.64,15.19,6.56,4.39,4.65,11.29,3.07,15.86-2.31,1.69-1.99,2.77-3.52,6.09-3.52,8.43,0,12.51-4.44,13.25-13.05,.17-2.03-.25-5.42,2.27-4.91,5.58,1.12,12.09-2.19,16.75,4.31,4.29,5.97,11.9,7.03,16.24,1.85,4.02-4.8,8.87-5.06,13.91-6.39,5.06-1.33,7.08-.29,7.05,5.42-.04,8.51,4.99,13.38,13.09,12.67,3.3-.29,4.47,.84,6.17,3.08,4.23,5.58,11.24,7.75,15.67,3.15,5.92-6.14,13.33-5.65,19.96-8.35,6.11-1.86,12.21-3.72,19.79-6.03-3.21,5.26-5.44,9.31-8.05,13.09-2.51,3.64-2.68,5.71,2.44,6.67,5.19,.97,10.26,2.66,15.38,4.03-5.93,3.66-11.95,5.65-17.82,8-2.22,.89-6.44,.03-5.58,4.58,.75,3.94,4.35,3.52,6.95,3.39,16.14-.82,29.27-7.39,37.23-21.88,7.88-14.35,11.71-30.12,12.72-46.35,.92-14.8-10.58-23.69-25.07-20.43-12.26,2.76-23.74,7.49-34.67,13.62,.44-8-3.79-12.76-10.81-15.57Zm-39.8,185.99c-7.39-8.57-8.03-8.87-12.31-5.67-11.32,8.48-29.66,8.83-40.83-.14-6.17-4.95-7.54,1.54-10.34,3.54-4.52,3.21,.74,4.82,2.24,6.13,15.46,13.54,47.17,13.02,61.24-3.86Zm-32.87-16.43c12.1-.03,17.58-3.72,17.43-11.75-.17-9.24-7.84-16.39-17.48-16.31-9.81,.08-16.9,7.17-16.74,16.74,.14,8.08,4.99,11.35,16.79,11.32Zm-28.43-50.48c.19-9.63-6.09-17.31-14.18-17.33-7.66-.03-14.01,7.39-14.2,16.57-.19,9.45,6.27,17.38,14.22,17.44,7.67,.06,13.96-7.36,14.15-16.68Zm85.6-.63c-.09-9.29-6.23-16.59-14.06-16.71-8.02-.12-14.53,7.64-14.41,17.17,.11,9.13,6.48,16.72,14.11,16.82,7.95,.11,14.46-7.73,14.36-17.29Z"/>
  <path class="cls-1" d="M252.95,87.02c7.02,2.82,11.25,7.57,10.81,15.57-2.31,3.5,1.53,3.6,2.86,4.78,5.17,4.57,8,11.15,3.06,15.65-6.63,6.05-6.06,14.04-9.24,20.88-6.62,2.7-14.04,2.22-19.96,8.35-4.44,4.6-11.44,2.43-15.67-3.15-1.7-2.24-2.87-3.37-6.17-3.08-8.1,.71-13.13-4.16-13.09-12.67,.03-5.72-1.99-6.76-7.05-5.42-5.03,1.33-9.89,1.59-13.91,6.39-4.34,5.18-11.96,4.12-16.24-1.85-4.66-6.5-11.17-3.19-16.75-4.31-2.52-.51-2.1,2.88-2.27,4.91-.74,8.61-4.82,13.05-13.25,13.05-3.32,0-4.4,1.53-6.09,3.52-4.58,5.38-11.48,6.96-15.86,2.31-4.64-4.92-9.6-5.59-15.19-6.56-1.48-.25-2.86-1.07-4.28-1.63-4.18-7.01-3.81-15.8-10.01-22.36-3.39-3.59-1.41-9.83,3.08-12.97,4.33-3.03,3.67-6.16,1.91-9.92,3-8.96,9.41-12.43,18.54-11.52,4.44-2.71,7.63-8.17,14.12-6.42,1.25,.33,3.26,0,3.72,.73,3.96,6.27,11.15,5.07,16.68,7.61,4.28,1.97,5.02-.19,5.07-3.6,.16-11.06,3.43-14.78,13.82-14.54,2.75,.06,4.35-.77,6.06-2.48,7.68-7.7,12.96-7.79,19.79,.13,2.06,2.39,4.21,2.45,6.85,2.58,9.07,.45,11.61,2.81,11.72,11.86,.06,5.22,.77,7.07,6.72,5.05,5.54-1.89,11.49-.94,16.49-6.22,2.89-3.06,9.73-2.55,13.38,1.88,2.97,3.61,6.34,4.03,10.37,3.44Zm-122.3,29.37c-.21-5.2-3.53-8.65-9.59-9.14-5.87-.48-10.88,4.16-10.67,9.94,.22,6.03,3.66,9.69,9.65,10.34,5.62,.6,10.45-4.24,10.62-11.13Zm114.21,1.72c.15-6.31-4.54-11.18-10.37-10.86-6,.33-9.71,3.49-9.86,9.83-.14,5.89,4.55,10.83,10.21,10.46,6.08-.39,9.24-4.1,10.02-9.43Zm-57.48-18.35c-.11-5.82-4.04-9.76-9.74-9.78-6-.02-9.99,4.26-9.84,10.48,.16,6.37,3.95,9.41,9.75,9.84,5.7,.43,9.94-4.44,9.82-10.54Z"/>
  <path class="cls-3" d="M260.45,143.9c3.18-6.84,2.6-14.83,9.24-20.88,4.94-4.5,2.1-11.08-3.06-15.65-1.33-1.18-5.18-1.28-2.86-4.78,10.93-6.13,22.41-10.86,34.67-13.62,14.49-3.26,25.99,5.64,25.07,20.43-1.01,16.22-4.84,31.99-12.72,46.35-7.95,14.49-21.08,21.06-37.23,21.88-2.6,.13-6.2,.55-6.95-3.39-.87-4.56,3.35-3.69,5.58-4.58,5.87-2.35,11.89-4.34,17.82-8-5.12-1.37-10.18-3.06-15.38-4.03-5.13-.96-4.95-3.03-2.44-6.67,2.61-3.78,4.84-7.82,8.05-13.09-7.58,2.31-13.68,4.17-19.79,6.03Z"/>
  <path class="cls-3" d="M89.64,98.51c1.76,3.76,2.42,6.89-1.91,9.92-4.49,3.14-6.47,9.37-3.08,12.97,6.2,6.57,5.83,15.35,10.01,22.36-5.93-1.77-11.86-3.54-19.45-5.8,3.82,6.5,6.97,11.86,10.54,17.93-7.03,1.98-13.65,3.85-22.79,6.43,9.91,3.56,17.69,6.36,25.48,9.15,2.08,.75,5.56,.81,5.35,3.31-.28,3.29-3.99,2.99-6.42,2.87-16.86-.81-30.16-8.01-38.12-23.19-7.48-14.28-10.8-29.94-12.18-45.84-1.16-13.24,11.06-22.67,24.6-19.82,9.73,2.04,18.94,5.63,27.97,9.72Z"/>
  <path class="cls-3" d="M213.15,273.01c-14.07,16.89-45.78,17.4-61.24,3.86-1.5-1.31-6.76-2.92-2.24-6.13,2.8-1.99,4.17-8.49,10.34-3.54,11.17,8.97,29.51,8.62,40.83,.14,4.27-3.2,4.91-2.91,12.31,5.67Z"/>
  <path class="cls-3" d="M180.28,256.58c-11.8,.02-16.65-3.25-16.79-11.32-.17-9.57,6.93-16.66,16.74-16.74,9.64-.07,17.31,7.08,17.48,16.31,.15,8.03-5.33,11.72-17.43,11.75Z"/>
  <path class="cls-3" d="M151.85,206.1c-.18,9.32-6.48,16.74-14.15,16.68-7.95-.06-14.41-7.99-14.22-17.44,.18-9.18,6.54-16.6,14.2-16.57,8.09,.03,14.37,7.71,14.18,17.33Z"/>
  <path class="cls-3" d="M237.44,205.47c.1,9.56-6.41,17.39-14.36,17.29-7.63-.1-13.99-7.7-14.11-16.82-.12-9.53,6.39-17.29,14.41-17.17,7.83,.12,13.96,7.41,14.06,16.71Z"/>
  <path class="cls-2" d="M130.65,116.39c-.16,6.89-5,11.73-10.62,11.13-5.99-.64-9.43-4.3-9.65-10.34-.21-5.77,4.81-10.42,10.67-9.94,6.06,.5,9.38,3.95,9.59,9.14Z"/>
  <path class="cls-2" d="M244.86,118.1c-.78,5.33-3.94,9.04-10.02,9.43-5.66,.36-10.35-4.57-10.21-10.46,.16-6.34,3.86-9.5,9.86-9.83,5.83-.32,10.51,4.55,10.37,10.86Z"/>
  <path class="cls-2" d="M187.38,99.75c.12,6.1-4.12,10.97-9.82,10.54-5.8-.44-9.59-3.48-9.75-9.84-.16-6.22,3.84-10.5,9.84-10.48,5.7,.02,9.62,3.96,9.74,9.78Z"/>
</svg>