<svg width="360" height="360" viewBox="0 0 360 360" fill="none" xmlns="http://www.w3.org/2000/svg">
<g clip-path="url(#clip0_366_17082)">
<path d="M235.7 61.9C246.9 54.3 259.4 45.2 271.9 55C283.9 64.5 281.9 79.7 279.5 93.9C277.1 108.1 276.5 122.6 267.1 134.8C262.1 141.3 267.6 147 270.2 152.7C281.6 177.5 292.3 202.2 294.2 230.4C297.5 278.8 252.7 315.8 211.7 319C187.9 320.9 163.7 321.4 139.6 317.3C89.9001 308.8 50.9001 259.2 70.7001 201.3C77.3001 182 82.6001 162.1 93.6001 144.8C97.6001 138.4 94.9001 135.6 91.5001 131C76.2001 110.5 80.5001 86.8 82.6001 64.2C83.6001 53.1 99.5001 48 110.1 53.9C115 56.7 121 58.9 123.6 64.9C121.3 67.9 118 67.5 114.9 67.8C87.2001 70.2 85.5001 73.4 99.0001 97.2C99.8001 98.6 100.6 100 101.4 101.3C111 117.7 117.3 118.4 127.5 102.6C134.4 91.9 141.9 84.6 155.6 85.9C162.4 86.6 168 83.2 172 77.6C181.2 71.5 184.7 73.9 188.5 76.3C204.1 83.1 205.9 82.8 208.3 86.1C217.3 86.4 224.1 88.3 229.7 96.9C245 120.5 249.6 120 263.5 95.5C264.6 93.6 265.4 91.7 266.4 89.8C273.8 75.2 270.7 70.1 253.9 68.2C247.6 67.4 239.6 70.4 235.7 61.9ZM200.6 207.9C200.5 194.4 191.6 190.7 180.5 190.6C169.3 190.5 160.2 194.3 159.7 207.5C159.1 220.4 169.2 231.2 180.9 231C192.2 230.6 200.5 220.9 200.6 207.9ZM184.5 255.5C188 255.5 195.8 254.3 202.6 249.4C205.1 247.6 208.7 245.9 206.9 242.1C205.1 238.4 201.9 236.7 197.7 239.1C186.1 245.9 174.5 246 163.1 239C158.6 236.2 155.9 238.6 153.9 241.6C151.3 245.4 155.1 247.2 157.4 248.9C163.9 254 171.7 255.4 184.5 255.5ZM133.2 175.4C142.4 174.1 145.7 167.9 145.5 159.7C145.2 152.1 141.3 145.9 133.1 145.9C124.9 145.9 121.1 152.2 120.8 159.8C120.5 168.1 124 174.2 133.2 175.4ZM226.9 145.6C217.7 147.2 214.2 153.8 214.7 161.7C215.2 168.9 219.1 175.7 227.6 175.1C236.7 174.5 239.8 167.6 239.4 159.3C239 151.5 235 146.5 226.9 145.6Z" fill="#FCFCFB"/>
<path d="M235.7 61.9C239.6 70.4 247.6 67.4 254.1 68.1C270.9 69.9 274 75.1 266.6 89.7C265.6 91.6 264.7 93.6 263.7 95.4C249.7 119.9 245.2 120.4 229.9 96.8C224.3 88.2 217.5 86.4 208.5 86C198.9 85.6 185.7 84.2 189.2 71C193 64.6 196.9 58.2 200.6 51.8C209.9 35.8 216.2 35.5 226.9 50.5C229.7 54.5 232.7 58.1 235.7 61.9Z" fill="#F16483"/>
<path d="M172.1 77.6C168.1 83.3 162.5 86.6 155.7 85.9C141.9 84.6 134.5 91.9 127.6 102.6C117.4 118.4 111.1 117.7 101.5 101.3C100.7 99.9 99.8 98.5 99.1 97.2C85.5 73.4 87.2 70.2 114.8 67.8C118 67.5 121.3 67.9 123.5 64.9C130.9 60 133.3 51.3 138.9 44.9C144.6 38.3 150.8 37.4 156 45C162.7 55.2 170.5 64.9 172.1 77.6Z" fill="#F16483"/>
<path d="M200.6 207.9C200.5 220.9 192.1 230.6 180.8 230.9C169.1 231.2 159.1 220.4 159.6 207.4C160.2 194.2 169.3 190.4 180.4 190.5C191.6 190.7 200.6 194.4 200.6 207.9Z" fill="#090909"/>
<path d="M184.5 255.5C171.8 255.4 164 254 157.3 249C155 247.2 151.1 245.5 153.8 241.7C155.9 238.7 158.5 236.2 163 239.1C174.4 246.2 186.1 246 197.6 239.2C201.8 236.8 205.1 238.5 206.8 242.2C208.6 246 205 247.7 202.5 249.5C195.8 254.2 188 255.5 184.5 255.5Z" fill="#161616"/>
<path d="M133.2 175.4C124 174.2 120.5 168.1 120.8 159.8C121 152.2 124.8 145.9 133.1 145.9C141.3 145.9 145.3 152 145.5 159.7C145.8 167.9 142.4 174.1 133.2 175.4Z" fill="#161616"/>
<path d="M226.9 145.6C235 146.4 238.9 151.4 239.3 159.3C239.7 167.6 236.6 174.5 227.5 175.1C219 175.6 215.1 168.9 214.6 161.7C214.2 153.8 217.7 147.2 226.9 145.6Z" fill="#161616"/>
</g>
<defs>
<clipPath id="clip0_366_17082">
<rect width="360" height="360" fill="white"/>
</clipPath>
</defs>
</svg>
