<svg width="360" height="360" viewBox="0 0 360 360" fill="none" xmlns="http://www.w3.org/2000/svg">
<path d="M279.44 134.31C294.82 138.27 298.05 148.78 294.24 162.63C286.43 191.03 267.7 212.22 247.63 232.46C238.277 241.893 239.193 249.54 250.38 255.4C251.8 256.15 253.41 256.64 254.66 257.61C259.64 261.5 266.86 264.84 265.75 272.06C264.69 278.97 257.15 278.65 251.5 280.03C227.16 285.97 202.45 282.51 177.94 282.63C155.06 282.74 131.93 285.76 109.23 279.79C104.07 278.43 97.65 278.23 96.54 271.96C95.46 265.91 101.48 263.03 105.2 259.34C105.95 258.6 107.04 258.22 107.83 257.51C113.48 252.53 126.3 253.84 125.6 245.47C125.07 239.19 115.82 233.49 110.16 227.84C91.38 209.09 75.66 188.33 68.17 162.42C64.16 148.55 67.83 138.09 83.22 134.26C89.9 147.58 95.64 161.39 106.74 172.07C127.19 191.74 152.52 188.34 164.05 162.68C168.55 152.68 175.18 154.93 182.12 154.7C188.9 154.48 194.64 153.8 198.67 162.78C210.03 188.15 235.81 191.75 255.97 172.15C266.98 161.45 272.14 147.23 279.47 134.3L279.44 134.31ZM180.71 214.84C188.9 215.09 196.57 213.25 203.44 208.76C205.96 207.11 209.69 205.34 207.96 201.57C206.34 198.03 203.13 195.85 198.85 198.26C187.29 204.77 175.58 205.14 164.19 198.28C159.66 195.55 156.92 197.59 154.94 200.74C151.89 205.6 156.91 207.13 159.6 208.97C165.9 213.28 173.09 215.05 180.71 214.85V214.84Z" fill="#FCFCFB"/>
<path d="M279.44 134.31C272.11 147.24 266.95 161.46 255.94 172.16C235.78 191.76 210 188.16 198.64 162.79C194.62 153.81 188.87 154.49 182.09 154.71C175.15 154.94 168.51 152.69 164.02 162.69C152.49 188.34 127.16 191.75 106.71 172.08C95.6099 161.4 89.8799 147.59 83.1899 134.27C81.1699 126.04 83.9399 120.68 92.4399 118.74C104.18 119.01 115.93 119.17 127.67 119.58C140.97 120.05 152.91 123.36 161.27 135.03C170.8 148.32 191.88 148.28 201.32 135.23C207.62 126.52 215.82 121.07 226.78 120.55C241.17 119.86 255.56 119.28 269.95 118.66C278.44 120.64 281.56 125.89 279.43 134.32L279.44 134.31Z" fill="#090909"/>
<path d="M269.96 118.65C255.57 119.28 241.18 119.85 226.79 120.54C215.83 121.07 207.63 126.51 201.33 135.22C191.88 148.27 170.8 148.31 161.28 135.02C152.92 123.36 140.98 120.04 127.68 119.57C115.94 119.16 104.19 119 92.4501 118.73C90.5601 103.26 96.9901 95.34 112.96 95.48C122.4 95.56 129.3 91.21 133.13 82.27C139.59 67.22 151.09 63.57 166.05 67.88C176.07 70.77 186.14 70.77 196.16 67.95C210.17 64 220.99 66.69 228.76 80.47C234.12 89.99 241.96 96.45 254.78 95.91C270.47 95.25 270.2 107.46 269.97 118.64L269.96 118.65Z" fill="#FCFCFB"/>
<path d="M180.73 214.84C173.09 215.04 165.9 213.27 159.6 208.96C156.91 207.12 151.88 205.6 154.94 200.73C156.92 197.58 159.66 195.54 164.19 198.27C175.59 205.13 187.3 204.76 198.85 198.25C203.13 195.84 206.34 198.03 207.96 201.56C209.69 205.32 205.96 207.1 203.44 208.75C196.57 213.24 188.9 215.08 180.73 214.83V214.84Z" fill="#161616"/>
</svg>
