<svg width="360" height="360" viewBox="0 0 360 360" fill="none" xmlns="http://www.w3.org/2000/svg">
<g clip-path="url(#clip0_366_21774)">
<path d="M62.0001 205C59.2001 201.1 68.4001 193.2 56.8001 191.8C42.2001 190.1 29.5001 184.6 26.5001 168.1C23.1001 149.3 33.3001 134.9 48.3001 128.8C67.5001 121 85.3001 117.1 84.7001 90.1C84.5001 80.2 97.0001 72.9 108.9 72.7C116.4 72.6 120.7 71.1 125.2 63.6C136.5 44.5 152.5 41.5 173.1 52.4C178.2 55.1 182 55.5 187.7 52.2C208.1 40.4 223.5 44.6 236.7 65C240 70.1 243.4 72.1 249.5 72.6C271 74.3 281.8 86.6 280.8 108.9C280.4 116.8 280.4 120.4 290.5 121.5C304.7 123.1 318.5 127.9 327.2 141.7C340.8 163.2 334.4 182.9 309.8 190.1C301.5 192.6 296.8 194.2 299.9 204.6C302.1 211.9 299.3 221.8 294.2 225.6C275.8 239.4 284.5 271.9 262.2 278.3C244.9 283.2 236 294.4 223.7 303.9C213.4 311.9 199.9 310.9 188.8 303.4C181.8 298.7 177.4 298.9 170.3 303.3C153.5 313.7 137.3 309.1 126.3 291.7C123 286.5 120.4 282.6 113.2 282.1C91.8001 280.5 84.3001 273.4 81.8001 251.2C80.9001 243 78.7001 237.4 72.1001 232.4C63.2001 225.9 60.6001 216.1 62.0001 205ZM107.3 130.3C95.9001 130.3 88.4001 129.9 80.9001 130.4C68.3001 131.2 63.2001 138.2 67.6001 149.7C72.7001 163.3 78.5001 176.6 88.4001 187.6C111.8 213.6 143.5 209.9 158.4 178.3C164.9 164.4 175.7 171.3 184.8 169.9C192.5 168.7 198.3 170 202.2 179.5C213.1 206 242 212.8 264.5 194.9C279.7 182.8 288 165.6 293.3 147.4C296.2 137.4 291.8 130.4 280.3 130.3C264.7 130.2 249.2 130.2 233.6 130.5C221.9 130.7 212 136.5 207 146.2C201.1 157.6 193.2 160.2 181.4 159.8C169.1 159.4 160.4 158.6 152.9 145.4C142.4 127.1 121.7 129.8 107.3 130.3ZM200 231.1C195.1 231.2 189 233.5 186.2 226.9C183.8 221.3 186.5 216.6 190.7 212.6C193.3 210.2 197.2 207.8 194.8 203.3C192.7 199.6 188.7 199.3 184.9 199.2C181.1 199.1 177.3 198.9 173.7 199.4C165 200.7 161.6 204.5 169 211.8C173.6 216.3 176.8 221.4 173.4 227.4C170.1 233.2 164 231.7 159 230C153.7 228.2 150.1 230.1 148.7 234.5C146.7 240.9 153.8 242.1 156.5 242.2C172.1 242.7 187.8 242.5 203.4 241.6C206.5 241.4 213.2 240.5 211.1 234.1C209.4 229.1 204.8 229.1 200 231.1Z" fill="#FCFCFB"/>
<path d="M107.3 130.3C121.8 129.8 142.4 127.1 152.9 145.6C160.3 158.7 169.1 159.6 181.4 160C193.2 160.3 201.1 157.8 207 146.4C212 136.7 221.9 130.9 233.6 130.7C249.2 130.4 264.7 130.4 280.3 130.5C291.8 130.6 296.2 137.6 293.3 147.6C288 165.8 279.7 183 264.5 195.1C242 213 213.1 206.1 202.2 179.7C198.3 170.2 192.5 168.9 184.8 170.1C175.8 171.5 165 164.6 158.4 178.5C143.5 210.1 111.8 213.9 88.4002 187.8C78.5002 176.8 72.7002 163.4 67.6002 149.9C63.3002 138.4 68.3002 131.4 80.9002 130.6C88.4002 129.9 95.9002 130.3 107.3 130.3ZM239 194.5C255.4 194.3 286.1 159.4 283 144.5C282.1 140.1 278.6 140.4 275.6 140.4C262.2 140.4 248.8 139.7 235.5 140.8C220.4 142.1 209.5 155.3 210.5 169.2C211.4 183 224.5 194.7 239 194.5ZM105.4 140.7C105.4 140.6 105.4 140.5 105.4 140.4C98.4002 140.4 91.5002 140.3 84.5002 140.4C80.0002 140.5 77.9002 142.3 78.3002 147.4C79.5002 162.8 98.8002 187.8 113.6 192.7C128.8 197.7 145.4 188.8 148.7 173.8C152.3 157.8 142.4 143 126.2 140.9C119.5 139.9 112.4 140.7 105.4 140.7Z" fill="#9C79E2"/>
<path d="M200 231.1C204.7 229.1 209.3 229.2 211 234.3C213.1 240.7 206.4 241.6 203.3 241.8C187.7 242.7 172 243 156.4 242.4C153.7 242.3 146.6 241 148.6 234.7C150 230.3 153.6 228.4 158.9 230.2C163.9 231.9 170.1 233.3 173.3 227.6C176.7 221.6 173.6 216.5 168.9 212C161.5 204.7 164.9 200.9 173.6 199.6C177.3 199.1 181.1 199.4 184.8 199.4C188.6 199.5 192.7 199.7 194.7 203.5C197.2 207.9 193.2 210.3 190.6 212.8C186.3 216.8 183.7 221.4 186.1 227.1C189 233.4 195.1 231.2 200 231.1Z" fill="#161616"/>
<path d="M239 194.5C224.5 194.7 211.4 183 210.4 169.2C209.4 155.3 220.3 142 235.4 140.8C248.7 139.7 262.2 140.4 275.5 140.4C278.6 140.4 282 140 282.9 144.5C286.1 159.4 255.4 194.3 239 194.5ZM225.2 164.6C225.8 171.8 228 178.4 236.6 178.8C245.1 179.2 248.7 173.1 249 165.5C249.4 157.3 246.2 150.2 236.9 150.2C228.6 150.1 225.9 156.9 225.2 164.6Z" fill="#F8F8F8"/>
<path d="M105.4 140.7C112.4 140.7 119.4 140 126.3 140.8C142.5 142.9 152.3 157.7 148.8 173.7C145.5 188.7 128.9 197.6 113.7 192.6C98.8001 187.7 79.6001 162.8 78.4001 147.3C78.0001 142.2 80.1001 140.4 84.6001 140.3C91.6001 140.2 98.5001 140.3 105.5 140.3C105.4 140.5 105.4 140.6 105.4 140.7ZM123.4 149.6C115 150.8 111.3 156.6 111.1 164C111 171.3 113.8 178.4 122.4 178.8C131.9 179.2 135.6 172.2 135.6 164.1C135.6 156.8 131.7 151 123.4 149.6Z" fill="#F8F8F8"/>
<path d="M225.2 164.6C225.9 156.8 228.6 150.1 237 150.2C246.2 150.3 249.4 157.3 249.1 165.5C248.8 173.1 245.2 179.2 236.7 178.8C228 178.5 225.8 171.8 225.2 164.6Z" fill="#090909"/>
<path d="M123.4 149.6C131.7 150.9 135.6 156.8 135.6 164.1C135.7 172.2 132 179.3 122.4 178.8C113.7 178.4 110.9 171.3 111.1 164C111.3 156.6 115 150.8 123.4 149.6Z" fill="#161616"/>
</g>
<defs>
<clipPath id="clip0_366_21774">
<rect width="360" height="360" fill="white"/>
</clipPath>
</defs>
</svg>
