<svg width="360" height="360" viewBox="0 0 360 360" fill="none" xmlns="http://www.w3.org/2000/svg">
<g clip-path="url(#clip0_366_20991)">
<path d="M180.9 299.9C119.8 297.8 70.1001 260.4 64.5001 192.6C63.9001 185.7 61.0001 182.2 55.3001 179C25.2001 162 19.5001 130.4 41.2001 102.3C56.4001 82.5 77.8001 75 101.8 81.7C107 83.2 110.6 82.7 115.2 79.9C157.2 54.9 200.1 53 243.4 76.5C249.8 80 256.5 81.6 263.6 79.9C288.4 73.9 304.9 87.8 318.5 104.7C331.1 120.3 336 138.9 327.9 159C325.2 165.7 321.8 171.9 314.6 174.4C303.6 178.2 300.6 187.2 299.8 197.1C295.4 256.8 244.5 299.6 180.9 299.9ZM109.1 125C98.3001 125 91.4001 124.7 84.4001 125.1C69.9001 125.8 65.4001 132.6 70.4001 146.3C75.4001 159.9 81.5001 173.1 91.4001 184C113.6 208.6 147.8 204.4 160.5 174.1C165.6 162 173.8 165.3 181.4 165.5C189.5 165.7 198.7 161.4 204.1 174.2C216.2 203 249.2 208.4 271.2 186.3C283.2 174.3 290.6 159.3 295.2 143.1C298.4 131.8 293.5 125.4 281.7 125.1C270.5 124.8 259.2 125.5 247.9 124.9C228.4 123.8 213.6 130.3 204 148.1C199.9 155.8 165.5 158.4 162 150.8C150.3 125.1 128.9 123.3 109.1 125ZM157.8 221.3C158 234.1 171.2 248.7 182.5 248.8C194.8 248.9 207.2 234 206.8 219.6C206.3 203.1 194.5 189.3 181.4 189.8C168.4 190.3 157.5 204.9 157.8 221.3ZM182.2 269.5C190.6 269.2 198 267.9 204.3 263.5C207.1 261.5 211.6 259.5 208.1 254.9C206.1 252.2 203.3 251 199.7 253.1C188.1 259.9 176.3 259.9 164.8 252.9C160.2 250.1 157.2 252.9 155.6 256C153.8 259.5 157.5 261.6 160 263.4C167 268.3 175 269 182.2 269.5Z" fill="#FCFCFB"/>
<path d="M109.1 125C128.9 123.3 150.3 125.1 162.1 150.8C165.5 158.3 199.9 155.7 204.1 148.1C213.7 130.3 228.5 123.7 248 124.9C259.2 125.6 270.5 124.8 281.8 125.1C293.6 125.4 298.5 131.8 295.3 143.1C290.7 159.3 283.3 174.2 271.3 186.3C249.3 208.4 216.3 203 204.2 174.2C198.8 161.4 189.7 165.6 181.5 165.5C173.9 165.3 165.7 162 160.6 174.1C147.8 204.3 113.6 208.6 91.4998 184C81.5998 173.1 75.4998 159.9 70.4998 146.3C65.4998 132.6 69.9998 125.8 84.4998 125.1C91.2998 124.7 98.2998 125 109.1 125ZM258 135.6C258 135.7 258 135.7 258 135.8C251.6 135.8 245.1 135.3 238.7 135.9C226.3 137 217.4 143.4 213.9 155.5C210.8 166.2 214.1 175.9 223.1 182.7C232.9 190.1 243.6 191.3 254.7 185.2C263.5 180.4 269.3 172.6 274.3 164.4C279.2 156.3 287.4 146.4 283.6 138.5C280.3 131.6 267.9 136.8 259.7 135.8C259 135.6 258.5 135.6 258 135.6ZM107.9 136.2C107.9 136 107.9 135.9 107.9 135.7C100.9 135.7 93.9998 135.7 86.9998 135.7C82.4998 135.7 80.2998 137.4 80.7998 142.5C81.9998 157.4 102 183.2 116.2 187.7C130.5 192.2 147 183.5 150.7 169.4C154.8 154 144.9 138.6 128.7 136.3C121.9 135.4 114.9 136.2 107.9 136.2Z" fill="#CD3280"/>
<path d="M157.8 221.3C157.5 204.9 168.4 190.3 181.3 189.7C194.5 189.2 206.2 203 206.7 219.5C207.1 233.9 194.7 248.8 182.4 248.7C171.2 248.7 158 234.1 157.8 221.3Z" fill="#090909"/>
<path d="M182.2 269.5C175 269 167 268.3 160.2 263.4C157.7 261.6 154 259.5 155.8 256C157.4 252.8 160.4 250.1 165 252.9C176.5 259.9 188.3 259.9 199.9 253.1C203.5 251 206.3 252.3 208.3 254.9C211.7 259.5 207.3 261.6 204.5 263.5C198 267.9 190.6 269.2 182.2 269.5Z" fill="#161616"/>
<path d="M258 135.6C258.5 135.6 259.1 135.5 259.6 135.6C267.9 136.7 280.3 131.5 283.5 138.3C287.3 146.3 279.2 156.1 274.2 164.2C269.2 172.5 263.4 180.2 254.6 185C243.5 191.1 232.8 189.9 223 182.5C214 175.7 210.7 166.1 213.8 155.3C217.3 143.3 226.3 136.8 238.6 135.7C245 135.1 251.4 135.6 257.9 135.6C258 135.8 258 135.7 258 135.6ZM240.2 144.7C231.4 145.5 227.9 151 227.5 158.7C227.2 166.3 229.7 173.2 238.3 173.9C247.8 174.7 251.5 167.9 251.7 159.6C251.8 151.8 248 146.4 240.2 144.7Z" fill="#F8F8F8"/>
<path d="M107.9 136.2C114.9 136.2 121.9 135.4 128.8 136.4C145 138.7 154.9 154.1 150.8 169.5C147.1 183.5 130.6 192.3 116.3 187.8C102.1 183.3 82.1001 157.5 80.9001 142.6C80.5001 137.5 82.6001 135.8 87.1001 135.8C94.1001 135.8 101 135.8 108 135.8C107.9 135.9 107.9 136 107.9 136.2ZM124.9 174.2C133.5 173.7 137.6 168 137.9 160.5C138.3 152.4 134.8 145 125.5 145C117 144.9 113.5 151.8 113.4 159.3C113.2 166.7 116.3 172.8 124.9 174.2Z" fill="#F8F8F8"/>
<path d="M240.2 144.7C248.1 146.4 251.9 151.8 251.7 159.6C251.5 168 247.8 174.7 238.3 173.9C229.7 173.2 227.2 166.3 227.5 158.7C227.8 151 231.4 145.5 240.2 144.7Z" fill="#161616"/>
<path d="M124.9 174.2C116.4 172.8 113.2 166.7 113.3 159.2C113.4 151.7 117 144.9 125.4 144.9C134.7 145 138.2 152.4 137.8 160.4C137.5 168 133.5 173.7 124.9 174.2Z" fill="#161616"/>
</g>
<defs>
<clipPath id="clip0_366_20991">
<rect width="360" height="360" fill="white"/>
</clipPath>
</defs>
</svg>
