<svg width="360" height="360" viewBox="0 0 360 360" fill="none" xmlns="http://www.w3.org/2000/svg">
<path d="M252.95 87.02C270.99 74.19 291.64 67.64 312.95 63.56C329.41 60.41 345.84 73.91 345.19 90.74C344.06 120.01 337.79 148.4 321.04 173.07C310.7 188.3 294.95 196.12 276.82 198.34C271.67 198.97 269.98 200.03 269.84 205.55C268.52 258.34 230.32 289.01 186.49 296.85C173.01 299.26 160.09 294.6 147.88 289.05C112.98 273.19 93.03 246.62 91.27 207.72C90.96 200.91 88.85 199.17 82.01 198.05C54.15 193.47 36.6 176.28 27.43 150.01C21.21 132.18 17.26 113.8 14.97 95.11C12.73 76.83 30.57 59.95 48.87 63.65C69.9 67.9 90.18 74.7 108.17 86.99C99.04 86.08 92.63 89.55 89.63 98.51C80.6 94.42 71.39 90.83 61.66 88.79C48.12 85.95 35.91 95.37 37.06 108.61C38.45 124.51 41.76 140.17 49.24 154.45C57.2 169.63 70.5 176.83 87.36 177.64C89.78 177.76 93.5 178.05 93.78 174.77C93.99 172.27 90.52 172.2 88.43 171.46L62.95 162.31L85.74 155.88L75.2 137.95L94.65 143.75C96.07 144.31 97.45 145.13 98.93 145.39C104.52 146.35 109.49 147.03 114.12 151.95C118.51 156.6 125.41 155.02 129.98 149.64C131.67 147.65 132.75 146.12 136.07 146.12C144.5 146.12 148.58 141.68 149.32 133.07C149.49 131.04 149.07 127.65 151.59 128.16C157.17 129.28 163.68 125.97 168.34 132.47C172.63 138.44 180.24 139.5 184.58 134.32C188.6 129.52 193.45 129.26 198.49 127.93C203.55 126.6 205.57 127.64 205.54 133.35C205.5 141.86 210.53 146.73 218.63 146.02C221.93 145.73 223.1 146.86 224.8 149.1C229.03 154.68 236.04 156.85 240.47 152.25C246.39 146.11 253.8 146.6 260.43 143.9L280.22 137.87C277.01 143.13 274.78 147.18 272.17 150.96C269.66 154.6 269.49 156.67 274.61 157.63C279.8 158.6 284.87 160.29 289.99 161.66C284.06 165.32 278.04 167.31 272.17 169.66C269.95 170.55 265.73 169.69 266.59 174.24C267.34 178.18 270.94 177.76 273.54 177.63C289.68 176.81 302.81 170.24 310.77 155.75C318.65 141.4 322.48 125.63 323.49 109.4C324.41 94.6 312.91 85.71 298.42 88.97C286.16 91.73 274.68 96.46 263.75 102.59C264.19 94.59 259.96 89.83 252.94 87.02H252.95ZM213.15 273.01C205.76 264.44 205.12 264.14 200.84 267.34C189.52 275.82 171.18 276.17 160.01 267.2C153.84 262.25 152.47 268.74 149.67 270.74C145.15 273.95 150.41 275.56 151.91 276.87C167.37 290.41 199.08 289.89 213.15 273.01ZM180.28 256.58C192.38 256.55 197.86 252.86 197.71 244.83C197.54 235.59 189.87 228.44 180.23 228.52C170.42 228.6 163.33 235.69 163.49 245.26C163.63 253.34 168.48 256.61 180.28 256.58ZM151.85 206.1C152.04 196.47 145.76 188.79 137.67 188.77C130.01 188.74 123.66 196.16 123.47 205.34C123.28 214.79 129.74 222.72 137.69 222.78C145.36 222.84 151.65 215.42 151.84 206.1H151.85ZM237.45 205.47C237.36 196.18 231.22 188.88 223.39 188.76C215.37 188.64 208.86 196.4 208.98 205.93C209.09 215.06 215.46 222.65 223.09 222.75C231.04 222.86 237.55 215.02 237.45 205.46V205.47Z" fill="#FBFCFC"/>
<path d="M252.95 87.0199C259.97 89.8399 264.2 94.5899 263.76 102.59C261.45 106.09 265.29 106.19 266.62 107.37C271.79 111.94 274.62 118.52 269.68 123.02C263.05 129.07 263.62 137.06 260.44 143.9C253.82 146.6 246.4 146.12 240.48 152.25C236.04 156.85 229.04 154.68 224.81 149.1C223.11 146.86 221.94 145.73 218.64 146.02C210.54 146.73 205.51 141.86 205.55 133.35C205.58 127.63 203.56 126.59 198.5 127.93C193.47 129.26 188.61 129.52 184.59 134.32C180.25 139.5 172.63 138.44 168.35 132.47C163.69 125.97 157.18 129.28 151.6 128.16C149.08 127.65 149.5 131.04 149.33 133.07C148.59 141.68 144.51 146.12 136.08 146.12C132.76 146.12 131.68 147.65 129.99 149.64C125.41 155.02 118.51 156.6 114.13 151.95C109.49 147.03 104.53 146.36 98.9401 145.39C97.4601 145.14 96.0801 144.32 94.6601 143.76C90.4801 136.75 90.8501 127.96 84.6501 121.4C81.2601 117.81 83.2401 111.57 87.7301 108.43C92.0601 105.4 91.4001 102.27 89.6401 98.5099C92.6401 89.5499 99.0501 86.0799 108.18 86.9899C112.62 84.2799 115.81 78.8199 122.3 80.5699C123.55 80.8999 125.56 80.5699 126.02 81.2999C129.98 87.5699 137.17 86.37 142.7 88.91C146.98 90.88 147.72 88.7199 147.77 85.3099C147.93 74.2499 151.2 70.5299 161.59 70.7699C162.723 70.8492 163.858 70.6667 164.909 70.2367C165.96 69.8066 166.898 69.1405 167.65 68.2899C175.33 60.5899 180.61 60.4999 187.44 68.4199C189.5 70.8099 191.65 70.8699 194.29 70.9999C203.36 71.4499 205.9 73.8099 206.01 82.8599C206.07 88.0799 206.78 89.93 212.73 87.91C218.27 86.02 224.22 86.9699 229.22 81.6899C232.11 78.6299 238.95 79.1399 242.6 83.5699C245.57 87.1799 248.94 87.5999 252.97 87.0099L252.95 87.0199ZM130.65 116.39C130.44 111.19 127.12 107.74 121.06 107.25C115.19 106.77 110.18 111.41 110.39 117.19C110.61 123.22 114.05 126.88 120.04 127.53C125.66 128.13 130.49 123.29 130.66 116.4L130.65 116.39ZM244.86 118.11C245.01 111.8 240.32 106.93 234.49 107.25C228.49 107.58 224.78 110.74 224.63 117.08C224.49 122.97 229.18 127.91 234.84 127.54C240.92 127.15 244.08 123.44 244.86 118.11ZM187.38 99.7599C187.27 93.9399 183.34 89.9999 177.64 89.9799C171.64 89.9599 167.65 94.2399 167.8 100.46C167.96 106.83 171.75 109.87 177.55 110.3C183.25 110.73 187.49 105.86 187.37 99.7599H187.38Z" fill="#FA5C7E"/>
<path d="M260.45 143.9C263.63 137.06 263.05 129.07 269.69 123.02C274.63 118.52 271.79 111.94 266.63 107.37C265.3 106.19 261.45 106.09 263.77 102.59C274.7 96.46 286.18 91.73 298.44 88.97C312.93 85.71 324.43 94.61 323.51 109.4C322.5 125.62 318.67 141.39 310.79 155.75C302.84 170.24 289.71 176.81 273.56 177.63C270.96 177.76 267.36 178.18 266.61 174.24C265.74 169.68 269.96 170.55 272.19 169.66C278.06 167.31 284.08 165.32 290.01 161.66C284.89 160.29 279.83 158.6 274.63 157.63C269.5 156.67 269.68 154.6 272.19 150.96C274.8 147.18 277.03 143.14 280.24 137.87L260.45 143.9ZM89.6401 98.51C91.4001 102.27 92.0601 105.4 87.7301 108.43C83.2401 111.57 81.2601 117.8 84.6501 121.4C90.8501 127.97 90.4801 136.75 94.6601 143.76L75.2101 137.96L85.7501 155.89L62.9601 162.32L88.4401 171.47C90.5201 172.22 94.0001 172.28 93.7901 174.78C93.5101 178.07 89.8001 177.77 87.3701 177.65C70.5101 176.84 57.2101 169.64 49.2501 154.46C41.7701 140.18 38.4501 124.52 37.0701 108.62C35.9101 95.38 48.1301 85.95 61.6701 88.8C71.4001 90.84 80.6101 94.43 89.6401 98.52V98.51ZM213.15 273.01C199.08 289.9 167.37 290.41 151.91 276.87C150.41 275.56 145.15 273.95 149.67 270.74C152.47 268.75 153.84 262.25 160.01 267.2C171.18 276.17 189.52 275.82 200.84 267.34C205.11 264.14 205.75 264.43 213.15 273.01ZM180.28 256.58C168.48 256.6 163.63 253.33 163.49 245.26C163.32 235.69 170.42 228.6 180.23 228.52C189.87 228.45 197.54 235.6 197.71 244.83C197.86 252.86 192.38 256.55 180.28 256.58ZM151.85 206.1C151.67 215.42 145.37 222.84 137.7 222.78C129.75 222.72 123.29 214.79 123.48 205.34C123.66 196.16 130.02 188.74 137.68 188.77C145.77 188.8 152.05 196.48 151.86 206.1H151.85ZM237.44 205.47C237.54 215.03 231.03 222.86 223.08 222.76C215.45 222.66 209.09 215.06 208.97 205.94C208.85 196.41 215.36 188.65 223.38 188.77C231.21 188.89 237.34 196.18 237.44 205.48V205.47Z" fill="#060606"/>
<path d="M130.65 116.39C130.49 123.28 125.65 128.12 120.03 127.52C114.04 126.88 110.6 123.22 110.38 117.18C110.17 111.41 115.19 106.76 121.05 107.24C127.11 107.74 130.43 111.19 130.64 116.38L130.65 116.39ZM244.86 118.1C244.08 123.43 240.92 127.14 234.84 127.53C229.18 127.89 224.49 122.96 224.63 117.07C224.79 110.73 228.49 107.57 234.49 107.24C240.32 106.92 245 111.79 244.86 118.1ZM187.38 99.75C187.5 105.85 183.26 110.72 177.56 110.29C171.76 109.85 167.97 106.81 167.81 100.45C167.65 94.23 171.65 89.95 177.65 89.97C183.35 89.99 187.27 93.93 187.39 99.75H187.38Z" fill="#FBFCFC"/>
</svg>
