<svg width="360" height="360" viewBox="0 0 360 360" fill="none" xmlns="http://www.w3.org/2000/svg">
<g clip-path="url(#clip0_366_16302)">
<path d="M298.2 208.9C298.2 255.5 273.1 289.8 225.7 308C177.7 326.4 118.4 312.5 84.5 273.9C47.8 232.1 53.4 152.9 113.8 120.6C121.8 116.3 130 110.5 138.6 109.5C156.4 107.5 164.3 97.5 168.6 81.6C171 72.6 172.6 56.5 179 56.8C189.6 57.2 188.7 72.4 191.6 81.4C196.6 96.7 204.3 105.7 221.3 109.8C261.6 119.7 302.6 164.7 298.2 208.9ZM136.4 240.6C136.3 227.3 124.3 215.4 110.9 215.5C97.5 215.6 86 227.4 86.1 241C86.2 254.6 97.9 266.3 111.4 266.2C124.7 266.1 136.5 254 136.4 240.6ZM272.8 239.8C272.5 224.2 262.8 214.9 247.3 215.5C233.8 216.1 224.1 227 224.7 241.2C225.2 254.8 236.2 266.1 248.9 266.2C262.3 266.3 273.1 254.3 272.8 239.8ZM201.3 227.5C199.4 217 193 209.5 180.3 209.1C168.2 208.7 158.5 218.6 158.9 230.4C159.2 239.4 173.9 260.8 180 261C186.5 261.1 201.6 238.7 201.3 227.5ZM134 201.3C142.6 199.1 146.6 193.1 145.9 184.9C145.3 177.4 141 171.3 132.7 171.9C123.7 172.6 120.4 179.6 121.1 187.8C121.7 195.3 125.9 200.4 134 201.3ZM226.3 171.4C218.7 172.9 214.6 178 214.5 185.9C214.4 193.8 218.1 200.4 226.1 200.8C235.4 201.3 239.2 194.1 239.2 185.8C239.2 178 235.1 172.7 226.3 171.4Z" fill="#FCFCFB"/>
<path d="M136.4 240.6C136.5 254.1 124.8 266.1 111.4 266.2C97.8998 266.3 86.1998 254.6 86.0998 241C85.9998 227.4 97.5998 215.6 111 215.5C124.2 215.4 136.3 227.2 136.4 240.6Z" fill="#F9C823"/>
<path d="M272.8 239.8C273 254.3 262.3 266.3 249 266.2C236.2 266.1 225.3 254.9 224.8 241.2C224.2 227 233.9 216.1 247.4 215.5C262.8 214.9 272.6 224.2 272.8 239.8Z" fill="#F9C823"/>
<path d="M201.3 227.5C201.6 238.7 186.5 261.1 179.9 261C173.9 260.9 159.1 239.5 158.8 230.4C158.5 218.7 168.2 208.8 180.2 209.1C193 209.5 199.4 217 201.3 227.5Z" fill="#090909"/>
<path d="M134 201.3C125.9 200.4 121.7 195.4 121.1 187.8C120.4 179.6 123.7 172.5 132.7 171.9C140.9 171.3 145.3 177.5 145.9 184.9C146.5 193 142.6 199 134 201.3Z" fill="#161616"/>
<path d="M226.3 171.4C235 172.7 239.2 178 239.2 185.8C239.2 194.1 235.3 201.4 226.1 200.8C218.1 200.3 214.4 193.8 214.5 185.9C214.6 178 218.7 172.9 226.3 171.4Z" fill="#161616"/>
</g>
<defs>
<clipPath id="clip0_366_16302">
<rect width="360" height="360" fill="white"/>
</clipPath>
</defs>
</svg>
