<svg width="360" height="360" viewBox="0 0 360 360" fill="none" xmlns="http://www.w3.org/2000/svg">
<g clip-path="url(#clip0_366_19426)">
<path d="M119.6 334.4C115.9 315.2 113.9 296.3 125.5 278.4C142.5 269.6 152 285.2 163.8 291.2C172.5 295.6 179.1 297 187.1 291.4C191.9 288 197.4 285.7 201.9 282C211.7 273.9 221 274 230.6 281.9C237.7 297.8 237 316.4 231.9 333.3C231.1 335.3 230.2 336.8 228.6 337.8C228.6 337.8 227 339.1 225.6 340C223.7 341.7 220.8 341.6 218.2 341.7C207.3 340 198.3 333.9 190.4 327C180 318 171.2 319.4 160.9 326.9C151.2 334.1 141.5 342.1 128 340.7C126.2 340.2 124.5 339.8 122.7 339.3C121.6 338.1 120 335.7 120 335.7L119.6 334.4Z" fill="#F16483"/>
<path d="M234.6 281.5C233.3 281.6 232 281.8 230.7 281.9C221.1 274 211.7 274 202 282C197.5 285.7 192 288 187.2 291.4C179.2 297 172.6 295.7 163.9 291.2C152 285.2 142.6 269.5 125.6 278.4C104.9 276.2 94.2 260.8 85 245.2C68.3 217 65.7 185.4 67.3 153.3C67.8 142.5 67.3 133.7 56.4 125.6C40.3 113.5 40 81.7 54.7 67.2C67.8 54.1 82.1 41.9 97 30.6C111.9 19.3 124.6 21.4 135.8 36.3C140.6 42.7 144.2 44.1 152.6 43.4C170.1 42 187.9 40.2 205.4 45C214.3 47.5 221.7 45 228.5 37.9C239.6 26.4 253.6 26.2 265.6 36.5C277 46.2 287.6 57 299.1 66.5C323.7 86.7 321.4 125.1 293.4 137.4C285.7 140.8 286.1 147.1 286.4 153.6C287.3 179 283.6 203.6 276.3 227.9C269.2 251.4 252.3 266.7 234.6 281.5ZM176.9 197C167.2 197.5 156.6 197.3 152.8 205.5C148.9 214.1 158.8 219.4 164.4 224.4C173.3 232.3 171.4 240.9 166.7 249.1C161.8 257.7 153.3 257.9 145.8 253C140.6 249.6 135.8 249.6 133.7 254.3C131.9 258.3 137 261.6 140.7 263.7C159.2 273.9 179.1 252.9 198 266.2C200.6 268 207.3 264.9 211.5 262.9C215.1 261.3 220.5 258.3 218.2 253.7C216 249.3 211.7 249.2 206.1 252.2C192.7 259.2 183.4 253.1 181.3 238.6C179.8 228.3 188.1 224.8 193.1 219.1C203.2 207.6 201.7 202.1 187 198.4C183.4 197.4 179.6 197.3 176.9 197ZM250.9 161.8C249.5 154.4 246.7 147.7 238.3 147.6C228.9 147.5 225.5 154.3 225.7 162.6C225.8 170.2 229.4 176.7 237.7 176.7C246.9 176.9 249.6 169.6 250.9 161.8ZM126.1 161.4C125.5 153.6 122.1 147.4 113.6 147.7C105.1 148 101.9 154.5 102 162.3C102.1 170.8 105.6 177.6 115.2 176.8C123.5 176 126 169.1 126.1 161.4Z" fill="#FCFCFB"/>
<path d="M176.9 197C179.6 197.3 183.4 197.4 187 198.3C201.8 201.9 203.3 207.5 193.1 219C188 224.8 179.8 228.3 181.3 238.5C183.4 253 192.7 259.1 206.1 252.1C211.7 249.2 216 249.3 218.2 253.6C220.5 258.2 215.1 261.1 211.5 262.8C207.2 264.8 200.5 267.9 198 266.1C179.1 252.8 159.2 273.9 140.7 263.6C136.9 261.5 131.9 258.2 133.7 254.2C135.8 249.4 140.6 249.4 145.8 252.9C153.3 257.8 161.8 257.6 166.7 249C171.3 240.9 173.3 232.3 164.4 224.3C158.8 219.3 148.9 214 152.8 205.4C156.6 197.3 167.2 197.5 176.9 197Z" fill="#161616"/>
<path d="M250.9 161.8C249.6 169.6 246.9 176.8 237.7 176.8C229.4 176.8 225.8 170.2 225.7 162.7C225.6 154.4 229 147.6 238.3 147.7C246.7 147.8 249.5 154.5 250.9 161.8Z" fill="#161616"/>
<path d="M126 161.4C125.9 169.1 123.5 175.9 115.1 176.7C105.6 177.5 102 170.7 101.9 162.2C101.8 154.4 105 147.9 113.5 147.6C122.1 147.4 125.5 153.6 126 161.4Z" fill="#161616"/>
</g>
<defs>
<clipPath id="clip0_366_19426">
<rect width="360" height="360" fill="white"/>
</clipPath>
</defs>
</svg>
