<svg width="360" height="360" viewBox="0 0 360 360" fill="none" xmlns="http://www.w3.org/2000/svg">
<g clip-path="url(#clip0_366_18645)">
<path d="M238.6 105C255.1 88 276.8 82.2 299 78.6C310.4 76.7 322.8 88.2 323.1 99.5C323.9 128 318.2 154.6 300.1 177.8C291.6 188.7 280.4 194.1 267.8 197C261.4 198.5 259.3 201 258.6 207.5C254.5 249.4 228.2 272.1 190.3 283.2C159.4 292.3 110.6 257.3 104.6 221.4C102.1 206.5 98.5998 195.5 81.1998 193.5C71.7998 192.4 65.0998 184.5 59.8998 177.2C43.1998 154 35.0998 127.4 37.0998 99C38.0998 85.2 49.2998 76.2 63.2998 78.7C84.1998 82.4 104.8 88.5 121.7 102.8C117.1 107 120 114.6 114.7 118.6C104.2 109.8 91.6998 105 78.5998 102.3C66.9998 99.9 56.4998 104 56.4998 116.4C56.4998 135.5 59.0998 154.8 74.9998 168.8C82.7998 177.8 92.5998 179.6 104.1 178.3C100.9 167.8 85.0998 175.8 85.6998 162.7C102.5 163.9 93.1998 153.5 90.2998 144.3C105.5 153.7 108.7 146.6 107.8 134.7C114.1 137.2 114.6 142.5 117.1 146.1C117 148.2 117.6 150.6 116.8 152.4C113.7 159.2 105.2 168.4 114.1 172.7C124.9 177.9 123.5 162.3 129.3 157.5C129.6 157.3 129.4 156.5 129.5 156C133.3 153.1 137.3 150.5 140.9 147.4C165.3 126.6 247.6 107 259.8 136C257.5 155.7 262.3 132.3 270.8 134.4C284.8 140.1 282.5 176.7 291.4 163.2C299.4 150.8 303.2 136.8 304.3 122.3C305.5 107.2 296.2 99.7 281.1 102.7C265.6 105.8 252 112.8 240.4 123.7C239.7 117.2 239.2 111.1 238.6 105ZM179.9 273.3C187.5 273.2 195 272.2 201.5 267.9C204.4 266 208.9 264.1 206.5 259.5C204.6 255.9 201.3 254.8 197 257.3C185.9 263.7 174.5 263.9 163.5 257.1C159.1 254.4 156.1 255.9 154 259.2C151.1 263.8 155.8 265.7 158.5 267.7C164.9 272.2 172.4 272.9 179.9 273.3ZM217.4 218.3C225.3 217.1 229.4 212 229.7 204.3C230 196 226.5 189.1 217.5 188.7C209.3 188.4 205.4 194.7 205 202.3C204.6 210.8 208.3 216.7 217.4 218.3ZM180.5 248.2C187.4 248.4 194.5 246.9 194.8 237.9C195.1 228.5 189.7 223.1 179.9 223.2C170.9 223.3 165.8 228.6 165.6 237C165.5 245.9 172.1 248.3 180.5 248.2ZM155.5 204.2C154.9 196.5 152.4 189.6 144.1 188.9C135.6 188.1 131.3 194.6 130.7 202C130.1 210 133.6 217.4 142.7 218C151.4 218.3 154 211.2 155.5 204.2Z" fill="#F8F8F8"/>
<path d="M233.4 162C221.2 133 165.2 126.3 140.8 147.1C137.2 150.2 133.2 152.8 129.4 155.7C122.7 148.5 120.3 112.8 126.6 106.7C128.6 104.8 132.5 105 135.6 104.2C146.6 111.4 155.6 111.1 161.4 97.5C162.2 95.6 163.8 94 165.2 92.4C179.6 75.9 186.3 75.6 197.3 94.1C204.1 105.5 209.2 113.5 223.2 104.4C228 101.3 233.6 103.8 238.8 105.1C242.8 110.4 244 116.1 240.4 123.4C240.4 129 240.4 134.5 240.5 140.1C234.3 150.9 251.3 158.8 244.9 170.2C238.6 169.6 239 161.7 233.4 162Z" fill="#F9C823"/>
<path d="M135.6 104.2C132.5 105 128.6 104.8 126.6 106.7C120.3 112.8 122.7 148.5 129.4 155.7C129.4 156.2 129.5 157 129.2 157.2C123.4 162 124.8 177.6 114 172.4C105.1 168.1 113.5 158.9 116.7 152.1C117.5 150.3 117 147.9 117 145.8C124.9 135.9 121.2 127 114.6 118.3C119.9 114.4 117 106.8 121.6 102.5C126.8 98.6001 132 94.2 135.6 104.2Z" fill="#F9C823"/>
<path d="M240.3 140.1C240.3 134.5 240.2 129 240.2 123.4C251.8 112.5 265.4 105.5 280.9 102.4C296 99.4 305.2 106.9 304.1 122C303 136.5 299.2 150.5 291.2 162.9C282.4 176.5 268.8 180.8 254.7 175.1C258.9 169.6 267.7 172 272.8 164.4C260.5 163 256.4 157.4 267 143.2C246.6 155.6 249.2 141.4 247.9 131.3C244.4 135.4 242.3 137.7 240.3 140.1Z" fill="#090909"/>
<path d="M114.6 118.5C121.2 127.2 124.9 136.1 117 146C114.4 142.3 113.9 137.1 107.7 134.6C108.5 146.5 105.4 153.6 90.1999 144.2C93.0999 153.4 102.4 163.8 85.5999 162.6C79.8999 160.9 78.3999 166.7 74.8999 168.8C58.9999 154.8 56.3999 135.5 56.3999 116.4C56.3999 104 66.8999 99.8999 78.4999 102.3C91.6999 104.9 104.1 109.7 114.6 118.5Z" fill="#090909"/>
<path d="M180 273.3C172.5 272.9 164.9 272.2 158.5 267.7C155.8 265.8 151.1 263.9 154 259.2C156.1 255.9 159.1 254.4 163.5 257.1C174.5 263.9 185.9 263.7 197 257.3C201.2 254.8 204.6 255.9 206.5 259.5C208.9 264.1 204.4 266.1 201.5 267.9C195 272.2 187.5 273.1 180 273.3Z" fill="#161616"/>
<path d="M217.4 218.3C208.3 216.7 204.6 210.8 205 202.4C205.4 194.7 209.3 188.4 217.5 188.8C226.5 189.1 230 196.1 229.7 204.4C229.4 212 225.3 217.1 217.4 218.3Z" fill="#161616"/>
<path d="M180.5 248.2C172.1 248.3 165.5 245.9 165.7 237C165.9 228.5 171 223.2 180 223.2C189.8 223.1 195.2 228.6 194.9 237.9C194.5 247 187.4 248.4 180.5 248.2Z" fill="#161616"/>
<path d="M155.5 204.2C154 211.3 151.4 218.4 142.7 217.9C133.5 217.4 130 210 130.7 201.9C131.3 194.5 135.6 188 144.1 188.8C152.4 189.6 154.9 196.4 155.5 204.2Z" fill="#161616"/>
<path d="M74.8999 168.6C78.3999 166.5 79.8999 160.8 85.5999 162.4C84.9999 175.5 100.9 167.5 104 178C92.4999 179.5 82.6999 177.6 74.8999 168.6Z" fill="#161616"/>
</g>
<defs>
<clipPath id="clip0_366_18645">
<rect width="360" height="360" fill="white"/>
</clipPath>
</defs>
</svg>
