<svg width="360" height="360" viewBox="0 0 360 360" fill="none" xmlns="http://www.w3.org/2000/svg">
<g clip-path="url(#clip0_366_17864)">
<path d="M241.4 96.7C257.1 92.8 270.3 83.1 286.1 79C309 73 323.8 82.6 323.4 106.1C323 135.3 316.2 162.4 293.3 182.9C290.1 185.7 286.7 189.9 283.1 190.3C261.5 192.5 258.9 207.6 254.9 225C247.8 255.8 207.4 284.9 177.9 283.4C144.8 281.7 110.4 251 104.2 217.4C101.9 205.2 99.3002 195.5 83.5002 192.4C65.4002 188.8 53.0002 175.5 47.8002 156.9C42.9002 139.4 36.1002 122.4 36.7002 103.8C37.3002 83 51.5002 72.2 71.2002 78.3C87.0002 83.2 102.1 90.1 117.6 96.1C113.4 101.1 101.3 97.6 103.2 109.3C94.7002 106.3 86.4002 102.4 77.6002 100.6C66.1002 98.3 55.8002 103 56.2002 115.5C56.8002 135.6 59.3002 156.1 77.7002 169.6C85.2002 176.5 93.9002 178.4 104.4 176.2C100.7 169.1 93.8002 170.2 88.8002 167.8C85.2002 166.1 83.4002 164.8 85.8002 161C100.3 161.1 90.4002 149.9 92.4002 144.1C97.0002 145.4 100.6 146.5 104.1 147.5C124.3 157.5 142.7 160.6 155.6 136C157.3 132.8 163.6 134.5 167.5 136.6C170.3 138.1 174.3 141.7 175.4 141C191.5 130.3 201.6 140.1 212.6 150.3C225.7 162.5 238 151.2 250.5 147.7C248.9 144.3 249.9 144.1 253.2 144.7L253 145.1C256.4 145.3 259.9 145.4 264.4 145.6C255.4 156.5 261.3 161.5 273.5 163.7C267.2 169.6 258.5 167.8 254.8 176.3C269.2 178.6 280.4 174.9 288.6 164.8C299 151.9 303 136.2 304.3 120.1C305.5 105.9 296.1 97.7 282.1 100.9C272.3 103.1 263 107.6 253.5 111.1C252.7 103.5 245.7 101.2 241.4 96.7ZM180.2 271.8C188.4 272 196.3 270.4 203 265.4C205.3 263.7 209 261.7 206.3 257.8C204.4 255.1 201.6 253.2 198.1 255.3C185.9 262.5 173.9 262.4 161.8 254.9C158.5 252.8 155.4 255.3 153.8 258.1C151.5 261.9 155.2 263.8 157.5 265.6C164.2 270.7 172.2 271.4 180.2 271.8ZM204.6 203C205.6 209.6 208.5 216.2 216.8 216.5C226.1 216.7 229.7 209.7 229.7 201.6C229.7 194.2 226 187.5 217.8 187.3C208.5 187.1 205.3 194 204.6 203ZM179.4 246.8C188 246.9 194.7 245 194.8 236C194.9 227.4 189.9 222.1 180.9 221.8C171.2 221.5 165.5 226.8 165.6 236.2C165.8 245.1 172.7 247 179.4 246.8ZM143.4 187C135.3 187.9 130.9 193.2 130.6 200.9C130.3 209 133.8 216.3 143.1 216.4C151.6 216.5 155 209.4 155.2 202.1C155.5 194.6 151.9 188.7 143.4 187Z" fill="#F8F8F8"/>
<path d="M103.2 109.3C101.3 97.6 113.4 101.1 117.6 96.1C119.6 95.3 122.2 93.4 123.5 94C143.7 103.8 155.3 86.1 170.2 79.5C183.6 73.6 193.3 82.5 200.8 90C207.3 96.5 212.6 99.4 219.9 95C228 90 234.2 97.5 241.4 96.7C245.7 101.3 252.7 103.5 253.4 111.1C257.9 120 261.4 128.8 252.8 137.6C251.6 138.9 252.8 142.5 252.8 145.1L253 144.7C251 144.7 250.1 145.7 250.3 147.7C237.8 151.2 225.5 162.5 212.4 150.3C201.5 140.2 191.3 130.4 175.2 141C174 141.8 170 138.1 167.3 136.6C163.4 134.5 157.1 132.8 155.4 136C142.5 160.5 124.1 157.5 103.9 147.5C102.8 134.8 91.6002 122.3 103.2 109.3ZM136.7 124.1C135.8 119.3 133.3 115.4 127.3 116.1C122.6 116.6 119.2 120.2 119 124.6C118.7 130 122.5 133.8 127.9 134C133.9 134.3 136.3 130.3 136.7 124.1ZM235.5 124.6C234 119.5 231.9 115.1 225.9 116C220.1 116.9 218.2 121.5 218.9 126.5C219.5 130.7 222 134.5 227.3 134.2C233.4 133.8 234.7 129.3 235.5 124.6ZM186.8 109.6C185.9 104.5 182.8 102.3 178 102.2C172.4 102.1 168.7 104.3 169.1 110.5C169.4 115.5 172.6 118.3 177.3 118.3C182.8 118.3 185.7 114.7 186.8 109.6Z" fill="#F16483"/>
<path d="M252.9 145C252.8 142.4 251.6 138.8 252.9 137.5C261.5 128.7 258 119.9 253.5 111C263 107.5 272.3 103.1 282.1 100.8C296 97.6 305.4 105.8 304.3 120C303 136.1 299 151.9 288.6 164.7C280.4 174.8 269.2 178.5 254.8 176.2C258.5 167.6 267.2 169.5 273.5 163.6C261.3 161.3 255.4 156.4 264.4 145.5C259.7 145.3 256.3 145.2 252.9 145Z" fill="#090909"/>
<path d="M103.2 109.3C91.5002 122.3 102.8 134.8 104.1 147.5C100.5 146.5 97.0002 145.4 92.4002 144.1C90.4002 149.9 100.3 161.1 85.8002 161C80.2002 161.1 78.0002 164.5 77.7002 169.7C59.3002 156.2 56.8002 135.7 56.2002 115.6C55.8002 103.1 66.1002 98.4 77.6002 100.7C86.4002 102.5 94.7002 106.4 103.2 109.3Z" fill="#090909"/>
<path d="M180.2 271.8C172.2 271.5 164.2 270.8 157.5 265.6C155.1 263.8 151.5 261.9 153.8 258.1C155.4 255.4 158.5 252.9 161.8 254.9C173.9 262.4 185.9 262.5 198.1 255.3C201.6 253.2 204.5 255.1 206.3 257.8C208.9 261.6 205.3 263.6 203 265.4C196.3 270.4 188.4 271.9 180.2 271.8Z" fill="#161616"/>
<path d="M204.6 203C205.4 194 208.6 187.1 217.7 187.3C225.9 187.5 229.6 194.2 229.6 201.6C229.7 209.7 226 216.7 216.7 216.5C208.5 216.3 205.6 209.7 204.6 203Z" fill="#161616"/>
<path d="M179.4 246.8C172.6 247 165.7 245.1 165.6 236.2C165.5 226.8 171.2 221.5 180.9 221.8C189.9 222.1 194.8 227.4 194.8 236C194.8 245 188 246.9 179.4 246.8Z" fill="#161616"/>
<path d="M143.4 187C151.8 188.7 155.4 194.6 155.2 202.1C155 209.4 151.7 216.5 143.1 216.4C133.8 216.3 130.3 209 130.6 200.9C130.9 193.3 135.3 188 143.4 187Z" fill="#161616"/>
<path d="M77.7002 169.7C78.0002 164.6 80.1002 161.2 85.8002 161C83.4002 164.8 85.2002 166.1 88.8002 167.8C93.8002 170.2 100.7 169.1 104.4 176.2C93.8002 178.5 85.2002 176.6 77.7002 169.7Z" fill="#161616"/>
<path d="M136.7 124.1C136.3 130.3 133.8 134.3 127.9 134C122.5 133.7 118.7 129.9 119 124.6C119.2 120.2 122.6 116.6 127.3 116.1C133.3 115.4 135.9 119.3 136.7 124.1Z" fill="#E5E4E3"/>
<path d="M235.5 124.6C234.7 129.3 233.4 133.8 227.3 134.2C222 134.5 219.5 130.8 218.9 126.5C218.2 121.5 220.1 116.9 225.9 116C232 115.1 234.1 119.5 235.5 124.6Z" fill="#E5E4E3"/>
<path d="M186.8 109.6C185.7 114.7 182.8 118.3 177.4 118.3C172.7 118.3 169.5 115.5 169.2 110.5C168.8 104.3 172.5 102.1 178.1 102.2C182.8 102.3 185.9 104.5 186.8 109.6Z" fill="#E5E4E3"/>
</g>
<defs>
<clipPath id="clip0_366_17864">
<rect width="360" height="360" fill="white"/>
</clipPath>
</defs>
</svg>
